<?xml version="1.0" encoding="UTF-8"?>

<!DOCTYPE svg PUBLIC "-//W3C//DTD SVG 1.0//EN" "http://www.w3.org/TR/2001/REC-SVG-20010904/DTD/svg10.dtd" [
<!ATTLIST g
xmlns:kvg CDATA #FIXED "http://kanjivg.tagaini.net"
kvg:element CDATA #IMPLIED
kvg:variant CDATA #IMPLIED
kvg:partial CDATA #IMPLIED
kvg:original CDATA #IMPLIED
kvg:part CDATA #IMPLIED
kvg:number CDATA #IMPLIED
kvg:tradForm CDATA #IMPLIED
kvg:radicalForm CDATA #IMPLIED
kvg:position CDATA #IMPLIED
kvg:radical CDATA #IMPLIED
kvg:phon CDATA #IMPLIED >
<!ATTLIST path
xmlns:kvg CDATA #FIXED "http://kanjivg.tagaini.net"
kvg:type CDATA #IMPLIED >
]>
<svg xmlns="http://www.w3.org/2000/svg" width="327" height = "327" viewBox="0 0 327 327">
<g id="kvg:StrokePaths_00045" style="fill:none;stroke:#000000;stroke-width:3;stroke-linecap:round;stroke-linejoin:round;" transform="scale(3.0,3.0)">
<g id="kvg:00045" kvg:element="E">
	<path style="stroke: #bf0909;" id="kvg:00045-s1" d="M31.5,17.32c0,9.1,0,62,0,73.27"/>
	<path style="stroke: #093ebf;" id="kvg:00045-s2" d="M31.93,16.8c2.31,0,27.19,0,48.15,0"/>
	<path style="stroke: #73bf09;" id="kvg:00045-s3" d="M31.93,52.35c2.31,0,25.44,0,46.4,0"/>
	<path style="stroke: #bf09a8;" id="kvg:00045-s4" d="M31.93,90.79c2.31,0,28.94,0,49.9,0"/>
</g>
</g>
<g id="kvg:StrokeNumbers_00045" style="font-size:8;fill:#808080" transform="scale(3.0,3.0)">
	<text style="fill: #bf0909;" transform="matrix(1 0 0 1 23.1 20.52)">1</text>
	<text style="fill: #093ebf;" transform="matrix(1 0 0 1 35.09 11.7)">2</text>
	<text style="fill: #73bf09;" transform="matrix(1 0 0 1 35.09 48.55)">3</text>
	<text style="fill: #bf09a8;" transform="matrix(1 0 0 1 35.09 85.84)">4</text>
</g>
</svg>
