<?xml version="1.0" encoding="UTF-8"?>

<!DOCTYPE svg PUBLIC "-//W3C//DTD SVG 1.0//EN" "http://www.w3.org/TR/2001/REC-SVG-20010904/DTD/svg10.dtd" [
<!ATTLIST g
xmlns:kvg CDATA #FIXED "http://kanjivg.tagaini.net"
kvg:element CDATA #IMPLIED
kvg:variant CDATA #IMPLIED
kvg:partial CDATA #IMPLIED
kvg:original CDATA #IMPLIED
kvg:part CDATA #IMPLIED
kvg:number CDATA #IMPLIED
kvg:tradForm CDATA #IMPLIED
kvg:radicalForm CDATA #IMPLIED
kvg:position CDATA #IMPLIED
kvg:radical CDATA #IMPLIED
kvg:phon CDATA #IMPLIED >
<!ATTLIST path
xmlns:kvg CDATA #FIXED "http://kanjivg.tagaini.net"
kvg:type CDATA #IMPLIED >
]>
<svg xmlns="http://www.w3.org/2000/svg" width="327" height = "327" viewBox="0 0 327 327">
<g id="kvg:StrokePaths_0004d" style="fill:none;stroke:#000000;stroke-width:3;stroke-linecap:round;stroke-linejoin:round;" transform="scale(3.0,3.0)">
<g id="kvg:0004d" kvg:element="M">
	<path style="stroke: #bf0909;" id="kvg:0004d-s1" d="M18,15.43c0,5.92,0,71.36,0,77.28"/>
	<path style="stroke: #093ebf;" id="kvg:0004d-s2" d="M18.43,14.92c10.44,22.4,31.17,67.63,35.71,77.31"/>
	<path style="stroke: #73bf09;" id="kvg:0004d-s3" d="M88.81,16.08c-6.74,15.17-28.84,64.24-34.4,76.23"/>
	<path style="stroke: #bf09a8;" id="kvg:0004d-s4" d="M89.32,15.5c0,15.03,0,66.33,0,77.02"/>
</g>
</g>
<g id="kvg:StrokeNumbers_0004d" style="font-size:8;fill:#808080" transform="scale(3.0,3.0)">
	<text style="fill: #bf0909;" transform="matrix(1 0 0 1 10.04 16.09)">1</text>
	<text style="fill: #093ebf;" transform="matrix(1 0 0 1 24.59 19.41)">2</text>
	<text style="fill: #73bf09;" transform="matrix(1 0 0 1 76.76 19.56)">3</text>
	<text style="fill: #bf09a8;" transform="matrix(1 0 0 1 82.02 47.61)">4</text>
</g>
</svg>
