<?xml version="1.0" encoding="UTF-8"?>

<!DOCTYPE svg PUBLIC "-//W3C//DTD SVG 1.0//EN" "http://www.w3.org/TR/2001/REC-SVG-20010904/DTD/svg10.dtd" [
<!ATTLIST g
xmlns:kvg CDATA #FIXED "http://kanjivg.tagaini.net"
kvg:element CDATA #IMPLIED
kvg:variant CDATA #IMPLIED
kvg:partial CDATA #IMPLIED
kvg:original CDATA #IMPLIED
kvg:part CDATA #IMPLIED
kvg:number CDATA #IMPLIED
kvg:tradForm CDATA #IMPLIED
kvg:radicalForm CDATA #IMPLIED
kvg:position CDATA #IMPLIED
kvg:radical CDATA #IMPLIED
kvg:phon CDATA #IMPLIED >
<!ATTLIST path
xmlns:kvg CDATA #FIXED "http://kanjivg.tagaini.net"
kvg:type CDATA #IMPLIED >
]>
<svg xmlns="http://www.w3.org/2000/svg" width="327" height = "327" viewBox="0 0 327 327">
<g id="kvg:StrokePaths_00067" style="fill:none;stroke:#000000;stroke-width:3;stroke-linecap:round;stroke-linejoin:round;" transform="scale(3.0,3.0)">
<g id="kvg:00067" kvg:element="g">
	<path style="stroke: #bf0909;" id="kvg:00067-s1" d="M55.14,35.01c-16.18,0-21.35,9.1-21.35,15.9c0,6.8,4.3,16.62,21.64,16.62c15.46,0,20.88-8.38,20.88-15.17c0-6.79-4.84-17.37-21.12-17.37"/>
	<path style="stroke: #093ebf;" id="kvg:00067-s2" d="M82.45,34.72c-5.49-1.45-8.38,0.43-11.17,3.9"/>
	<path style="stroke: #73bf09;" id="kvg:00067-s3" d="M40.36,65.64c-3.72,2.31-7.39,13.03,4.91,14.16c9.39,0.87,15.49,1.3,23.01,1.85c10.12,0.75,11.57,8.84,11.57,12.32c0,4.48-3.9,14.44-23.27,14.44c-19.37,0-25.58-6.5-25.58-14.4c0-7.66,4.34-11.47,9.49-14.46"/>
</g>
</g>
<g id="kvg:StrokeNumbers_00067" style="font-size:8;fill:#808080" transform="scale(3.0,3.0)">
	<text style="fill: #bf0909;" transform="matrix(1 0 0 1 49.73 31.4)">1</text>
	<text style="fill: #093ebf;" transform="matrix(1 0 0 1 80 30.44)">2</text>
	<text style="fill: #73bf09;" transform="matrix(1 0 0 1 29.57 69.45)">3</text>
</g>
</svg>
