<?xml version="1.0" encoding="UTF-8"?>

<!DOCTYPE svg PUBLIC "-//W3C//DTD SVG 1.0//EN" "http://www.w3.org/TR/2001/REC-SVG-20010904/DTD/svg10.dtd" [
<!ATTLIST g
xmlns:kvg CDATA #FIXED "http://kanjivg.tagaini.net"
kvg:element CDATA #IMPLIED
kvg:variant CDATA #IMPLIED
kvg:partial CDATA #IMPLIED
kvg:original CDATA #IMPLIED
kvg:part CDATA #IMPLIED
kvg:number CDATA #IMPLIED
kvg:tradForm CDATA #IMPLIED
kvg:radicalForm CDATA #IMPLIED
kvg:position CDATA #IMPLIED
kvg:radical CDATA #IMPLIED
kvg:phon CDATA #IMPLIED >
<!ATTLIST path
xmlns:kvg CDATA #FIXED "http://kanjivg.tagaini.net"
kvg:type CDATA #IMPLIED >
]>
<svg xmlns="http://www.w3.org/2000/svg" width="327" height = "327" viewBox="0 0 327 327">
<g id="kvg:StrokePaths_0006d" style="fill:none;stroke:#000000;stroke-width:3;stroke-linecap:round;stroke-linejoin:round;" transform="scale(3.0,3.0)">
<g id="kvg:0006d" kvg:element="m">
	<path style="stroke: #bf0909;" id="kvg:0006d-s1" d="M21.64,35.33c0,7.23-0.14,51.62-0.14,57.4"/>
	<path style="stroke: #093ebf;" id="kvg:0006d-s2" d="M21.65,50.44c6.92-19.34,33.32-21.07,33.32-2.27c0,19.22,0,37.48,0,44.42"/>
	<path style="stroke: #73bf09;" id="kvg:0006d-s3" d="M55.1,50.1c6.92-19.34,33.32-21.07,33.32-2.27c0,19.22,0,37.48,0,44.42"/>
</g>
</g>
<g id="kvg:StrokeNumbers_0006d" style="font-size:8;fill:#808080" transform="scale(3.0,3.0)">
	<text style="fill: #bf0909;" transform="matrix(1 0 0 1 13.49 35.73)">1</text>
	<text style="fill: #093ebf;" transform="matrix(1 0 0 1 26.85 33.33)">2</text>
	<text style="fill: #73bf09;" transform="matrix(1 0 0 1 57.05 34.77)">3</text>
</g>
</svg>
