<?xml version="1.0" encoding="UTF-8"?>

<!DOCTYPE svg PUBLIC "-//W3C//DTD SVG 1.0//EN" "http://www.w3.org/TR/2001/REC-SVG-20010904/DTD/svg10.dtd" [
<!ATTLIST g
xmlns:kvg CDATA #FIXED "http://kanjivg.tagaini.net"
kvg:element CDATA #IMPLIED
kvg:variant CDATA #IMPLIED
kvg:partial CDATA #IMPLIED
kvg:original CDATA #IMPLIED
kvg:part CDATA #IMPLIED
kvg:number CDATA #IMPLIED
kvg:tradForm CDATA #IMPLIED
kvg:radicalForm CDATA #IMPLIED
kvg:position CDATA #IMPLIED
kvg:radical CDATA #IMPLIED
kvg:phon CDATA #IMPLIED >
<!ATTLIST path
xmlns:kvg CDATA #FIXED "http://kanjivg.tagaini.net"
kvg:type CDATA #IMPLIED >
]>
<svg xmlns="http://www.w3.org/2000/svg" width="327" height = "327" viewBox="0 0 327 327">
<g id="kvg:StrokePaths_00077" style="fill:none;stroke:#000000;stroke-width:3;stroke-linecap:round;stroke-linejoin:round;" transform="scale(3.0,3.0)">
<g id="kvg:00077" kvg:element="w">
	<path style="stroke: #bf0909;" id="kvg:00077-s1" d="M15,35.26c5.6,16.59,16.23,50.08,18.67,57.25"/>
	<path style="stroke: #093ebf;" id="kvg:00077-s2" d="M53.56,35.5c-3.77,11.36-16.13,48.08-19.24,57.06"/>
	<path style="stroke: #73bf09;" id="kvg:00077-s3" d="M54.58,35.42c5.6,16.59,16.73,50.08,19.17,57.25"/>
	<path style="stroke: #bf09a8;" id="kvg:00077-s4" d="M93.15,35.66c-3.77,11.36-15.63,48.08-18.74,57.06"/>
</g>
</g>
<g id="kvg:StrokeNumbers_00077" style="font-size:8;fill:#808080" transform="scale(3.0,3.0)">
	<text style="fill: #bf0909;" transform="matrix(1 0 0 1 9.33 32.28)">1</text>
	<text style="fill: #093ebf;" transform="matrix(1 0 0 1 43.68 36.03)">2</text>
	<text style="fill: #73bf09;" transform="matrix(1 0 0 1 62.76 38.49)">3</text>
	<text style="fill: #bf09a8;" transform="matrix(1 0 0 1 83.85 38.2)">4</text>
</g>
</svg>
