<?xml version="1.0" encoding="UTF-8"?>

<!DOCTYPE svg PUBLIC "-//W3C//DTD SVG 1.0//EN" "http://www.w3.org/TR/2001/REC-SVG-20010904/DTD/svg10.dtd" [
<!ATTLIST g
xmlns:kvg CDATA #FIXED "http://kanjivg.tagaini.net"
kvg:element CDATA #IMPLIED
kvg:variant CDATA #IMPLIED
kvg:partial CDATA #IMPLIED
kvg:original CDATA #IMPLIED
kvg:part CDATA #IMPLIED
kvg:number CDATA #IMPLIED
kvg:tradForm CDATA #IMPLIED
kvg:radicalForm CDATA #IMPLIED
kvg:position CDATA #IMPLIED
kvg:radical CDATA #IMPLIED
kvg:phon CDATA #IMPLIED >
<!ATTLIST path
xmlns:kvg CDATA #FIXED "http://kanjivg.tagaini.net"
kvg:type CDATA #IMPLIED >
]>
<svg xmlns="http://www.w3.org/2000/svg" width="327" height = "327" viewBox="0 0 327 327">
<g id="kvg:StrokePaths_02e8c" style="fill:none;stroke:#000000;stroke-width:3;stroke-linecap:round;stroke-linejoin:round;" transform="scale(3.0,3.0)">
<g id="kvg:02e8c" kvg:element="⺌" kvg:variant="true" kvg:original="小" kvg:radical="tradit">
	<path style="stroke: #bf0909;" id="kvg:02e8c-s1" kvg:type="㇑" d="M52.34,21.24c0.83,0.83,1.31,2.01,1.31,3.71c0,6.86-0.01,23.07-0.02,33.67c0,4.55,0,8.07,0,9.38"/>
	<path style="stroke: #093ebf;" id="kvg:02e8c-s2" kvg:type="㇔" d="M18.25,33.75c5.77,4.41,14.92,18.13,16.36,24.99"/>
	<path style="stroke: #73bf09;" id="kvg:02e8c-s3" kvg:type="㇒" d="M84.66,32.16c0.09,1.29,0.03,2.46-0.5,3.65c-2.66,6.06-10.15,15.68-17.89,23.43"/>
</g>
</g>
<g id="kvg:StrokeNumbers_02e8c" style="font-size:8;fill:#808080" transform="scale(3.0,3.0)">
	<text style="fill: #bf0909;" transform="matrix(1 0 0 1 45.22 19.07)">1</text>
	<text style="fill: #093ebf;" transform="matrix(1 0 0 1 12.09 31.63)">2</text>
	<text style="fill: #73bf09;" transform="matrix(1 0 0 1 73.75 29.6)">3</text>
</g>
</svg>
