<?xml version="1.0" encoding="UTF-8"?>

<!DOCTYPE svg PUBLIC "-//W3C//DTD SVG 1.0//EN" "http://www.w3.org/TR/2001/REC-SVG-20010904/DTD/svg10.dtd" [
<!ATTLIST g
xmlns:kvg CDATA #FIXED "http://kanjivg.tagaini.net"
kvg:element CDATA #IMPLIED
kvg:variant CDATA #IMPLIED
kvg:partial CDATA #IMPLIED
kvg:original CDATA #IMPLIED
kvg:part CDATA #IMPLIED
kvg:number CDATA #IMPLIED
kvg:tradForm CDATA #IMPLIED
kvg:radicalForm CDATA #IMPLIED
kvg:position CDATA #IMPLIED
kvg:radical CDATA #IMPLIED
kvg:phon CDATA #IMPLIED >
<!ATTLIST path
xmlns:kvg CDATA #FIXED "http://kanjivg.tagaini.net"
kvg:type CDATA #IMPLIED >
]>
<svg xmlns="http://www.w3.org/2000/svg" width="327" height = "327" viewBox="0 0 327 327">
<g id="kvg:StrokePaths_02e97" style="fill:none;stroke:#000000;stroke-width:3;stroke-linecap:round;stroke-linejoin:round;" transform="scale(3.0,3.0)">
<g id="kvg:02e97" kvg:element="⺗" kvg:variant="true" kvg:original="心" kvg:radical="tradit">
	<path style="stroke: #bf0909;" id="kvg:02e97-s1" kvg:type="㇚" d="M46.5,12.08c1.21,1.21,1.48,2.67,1.48,4.9c0,16.39-0.04,63.78-0.04,69.36c0,11.7-7.31,3.16-10.3,0.78"/>
	<path style="stroke: #093ebf;" id="kvg:02e97-s2" kvg:type="㇔" d="M28.11,45.4c-2.36,9.1-6.36,18.1-11.11,22.96"/>
	<path style="stroke: #73bf09;" id="kvg:02e97-s3" kvg:type="㇔" d="M63.56,44.54c3.56,3.97,9.19,16.34,10.08,22.52"/>
	<path style="stroke: #bf09a8;" id="kvg:02e97-s4" kvg:type="㇔" d="M81.12,41.88c4.48,3.93,11.56,16.18,12.68,22.3"/>
</g>
</g>
<g id="kvg:StrokeNumbers_02e97" style="font-size:8;fill:#808080" transform="scale(3.0,3.0)">
	<text style="fill: #bf0909;" transform="matrix(1 0 0 1 36.25 11.25)">1</text>
	<text style="fill: #093ebf;" transform="matrix(1 0 0 1 22.25 42.25)">2</text>
	<text style="fill: #73bf09;" transform="matrix(1 0 0 1 56.25 42.25)">3</text>
	<text style="fill: #bf09a8;" transform="matrix(1 0 0 1 73.25 42.25)">4</text>
</g>
</svg>
