<?xml version="1.0" encoding="UTF-8"?>

<!DOCTYPE svg PUBLIC "-//W3C//DTD SVG 1.0//EN" "http://www.w3.org/TR/2001/REC-SVG-20010904/DTD/svg10.dtd" [
<!ATTLIST g
xmlns:kvg CDATA #FIXED "http://kanjivg.tagaini.net"
kvg:element CDATA #IMPLIED
kvg:variant CDATA #IMPLIED
kvg:partial CDATA #IMPLIED
kvg:original CDATA #IMPLIED
kvg:part CDATA #IMPLIED
kvg:number CDATA #IMPLIED
kvg:tradForm CDATA #IMPLIED
kvg:radicalForm CDATA #IMPLIED
kvg:position CDATA #IMPLIED
kvg:radical CDATA #IMPLIED
kvg:phon CDATA #IMPLIED >
<!ATTLIST path
xmlns:kvg CDATA #FIXED "http://kanjivg.tagaini.net"
kvg:type CDATA #IMPLIED >
]>
<svg xmlns="http://www.w3.org/2000/svg" width="327" height = "327" viewBox="0 0 327 327">
<g id="kvg:StrokePaths_03048" style="fill:none;stroke:#000000;stroke-width:3;stroke-linecap:round;stroke-linejoin:round;" transform="scale(3.0,3.0)">
<g id="kvg:03048" kvg:element="ãˆ">
	<path style="stroke: #bf0909;" id="kvg:03048-s1" d="M40.52,13.25c5.62,2.12,10,3,14.12,3c8.27,0,8,1.12-0.38,5.5"/>
	<path style="stroke: #093ebf;" id="kvg:03048-s2" d="M32.52,45.12c1.88,1.25,4.5,1.75,7.38,0.62c3.29-1.29,17-7.88,21.25-9.88c4.25-2,8.32,0.04,4.38,4.62c-12.26,14.27-27.26,31.52-39.51,44.4c-3.26,3.42-0.58,3.54,1.5,1.37c13.5-14.12,18.12-20.12,23.62-20.12c7.13,0,3.5,16.75,6.75,22.38c3.25,5.63,19.12,3.75,26.12,2.12"/>
</g>
</g>
<g id="kvg:StrokeNumbers_03048" style="font-size:8;fill:#808080" transform="scale(3.0,3.0)">
	<text style="fill: #bf0909;" transform="matrix(1 0 0 1 33.9 13.5)">1</text>
	<text style="fill: #093ebf;" transform="matrix(1 0 0 1 25.15 44.38)">2</text>
</g>
</svg>
