<?xml version="1.0" encoding="UTF-8"?>

<!DOCTYPE svg PUBLIC "-//W3C//DTD SVG 1.0//EN" "http://www.w3.org/TR/2001/REC-SVG-20010904/DTD/svg10.dtd" [
<!ATTLIST g
xmlns:kvg CDATA #FIXED "http://kanjivg.tagaini.net"
kvg:element CDATA #IMPLIED
kvg:variant CDATA #IMPLIED
kvg:partial CDATA #IMPLIED
kvg:original CDATA #IMPLIED
kvg:part CDATA #IMPLIED
kvg:number CDATA #IMPLIED
kvg:tradForm CDATA #IMPLIED
kvg:radicalForm CDATA #IMPLIED
kvg:position CDATA #IMPLIED
kvg:radical CDATA #IMPLIED
kvg:phon CDATA #IMPLIED >
<!ATTLIST path
xmlns:kvg CDATA #FIXED "http://kanjivg.tagaini.net"
kvg:type CDATA #IMPLIED >
]>
<svg xmlns="http://www.w3.org/2000/svg" width="327" height = "327" viewBox="0 0 327 327">
<g id="kvg:StrokePaths_03055" style="fill:none;stroke:#000000;stroke-width:3;stroke-linecap:round;stroke-linejoin:round;" transform="scale(3.0,3.0)">
<g id="kvg:03055" kvg:element="ã•">
	<path style="stroke: #bf0909;" id="kvg:03055-s1" d="M27,38.9c2.42,1.33,5.38,1.47,8.32,1.06c8.79-1.24,28.67-7.76,34.15-10.43c2.79-1.36,3.78-1.91,6.28-3.53"/>
	<path style="stroke: #093ebf;" id="kvg:03055-s2" d="M41.5,13.88c1.5,0.88,3.63,2.94,4.5,5.12c5.5,13.75,15.25,27.62,26.87,39.5c7.98,8.15,6.38,10-6,3.12"/>
	<path style="stroke: #73bf09;" id="kvg:03055-s3" d="M35.25,80.5c4.5,11.75,20.88,12.5,38.38,7.5"/>
</g>
</g>
<g id="kvg:StrokeNumbers_03055" style="font-size:8;fill:#808080" transform="scale(3.0,3.0)">
	<text style="fill: #bf0909;" transform="matrix(1 0 0 1 21.25 38.5)">1</text>
	<text style="fill: #093ebf;" transform="matrix(1 0 0 1 32 13)">2</text>
	<text style="fill: #73bf09;" transform="matrix(1 0 0 1 28.25 77)">3</text>
</g>
</svg>
