<?xml version="1.0" encoding="UTF-8"?>

<!DOCTYPE svg PUBLIC "-//W3C//DTD SVG 1.0//EN" "http://www.w3.org/TR/2001/REC-SVG-20010904/DTD/svg10.dtd" [
<!ATTLIST g
xmlns:kvg CDATA #FIXED "http://kanjivg.tagaini.net"
kvg:element CDATA #IMPLIED
kvg:variant CDATA #IMPLIED
kvg:partial CDATA #IMPLIED
kvg:original CDATA #IMPLIED
kvg:part CDATA #IMPLIED
kvg:number CDATA #IMPLIED
kvg:tradForm CDATA #IMPLIED
kvg:radicalForm CDATA #IMPLIED
kvg:position CDATA #IMPLIED
kvg:radical CDATA #IMPLIED
kvg:phon CDATA #IMPLIED >
<!ATTLIST path
xmlns:kvg CDATA #FIXED "http://kanjivg.tagaini.net"
kvg:type CDATA #IMPLIED >
]>
<svg xmlns="http://www.w3.org/2000/svg" width="327" height = "327" viewBox="0 0 327 327">
<g id="kvg:StrokePaths_0305c" style="fill:none;stroke:#000000;stroke-width:3;stroke-linecap:round;stroke-linejoin:round;" transform="scale(3.0,3.0)">
<g id="kvg:0305c" kvg:element="ãœ">
	<path style="stroke: #bf0909;" id="kvg:0305c-s1" d="M16.5,49.93c2.88,2.42,6.86,1.57,12.75,0.53c19-3.34,32.5-5.34,47.12-7.64c6.97-1.1,11.88-1.21,17.75-0.36"/>
	<path style="stroke: #093ebf;" id="kvg:0305c-s2" d="M69.74,17.75c2,1.5,2.75,3.25,2.75,5.88c0,10.38,0,17.88,0,23.5c0,25.62-5.75,23.25-11.88,19"/>
	<path style="stroke: #73bf09;" id="kvg:0305c-s3" d="M35.62,26.25c2,1.5,2.75,3.25,2.75,5.88c0,10.38,0,28.38,0,34c0,14.5,6.38,19.55,20.14,19.55c10.24,0,13.74,0.07,22.61-1.68"/>
	<path style="stroke: #bf09a8;" id="kvg:0305c-s4" d="M84.5,17.25c2.75,1.75,6,5.38,7.75,8.5"/>
	<path style="stroke: #09bfa0;" id="kvg:0305c-s5" d="M90.87,12.38c3.06,1.57,6.68,4.82,8.62,7.62"/>
</g>
</g>
<g id="kvg:StrokeNumbers_0305c" style="font-size:8;fill:#808080" transform="scale(3.0,3.0)">
	<text style="fill: #bf0909;" transform="matrix(1 0 0 1 10.12 48.5)">1</text>
	<text style="fill: #093ebf;" transform="matrix(1 0 0 1 61.25 16.5)">2</text>
	<text style="fill: #73bf09;" transform="matrix(1 0 0 1 27.75 25.25)">3</text>
	<text style="fill: #bf09a8;" transform="matrix(1 0 0 1 76.87 16.25)">4</text>
	<text style="fill: #09bfa0;" transform="matrix(1 0 0 1 83 11.13)">5</text>
</g>
</svg>
