<?xml version="1.0" encoding="UTF-8"?>

<!DOCTYPE svg PUBLIC "-//W3C//DTD SVG 1.0//EN" "http://www.w3.org/TR/2001/REC-SVG-20010904/DTD/svg10.dtd" [
<!ATTLIST g
xmlns:kvg CDATA #FIXED "http://kanjivg.tagaini.net"
kvg:element CDATA #IMPLIED
kvg:variant CDATA #IMPLIED
kvg:partial CDATA #IMPLIED
kvg:original CDATA #IMPLIED
kvg:part CDATA #IMPLIED
kvg:number CDATA #IMPLIED
kvg:tradForm CDATA #IMPLIED
kvg:radicalForm CDATA #IMPLIED
kvg:position CDATA #IMPLIED
kvg:radical CDATA #IMPLIED
kvg:phon CDATA #IMPLIED >
<!ATTLIST path
xmlns:kvg CDATA #FIXED "http://kanjivg.tagaini.net"
kvg:type CDATA #IMPLIED >
]>
<svg xmlns="http://www.w3.org/2000/svg" width="327" height = "327" viewBox="0 0 327 327">
<g id="kvg:StrokePaths_03065" style="fill:none;stroke:#000000;stroke-width:3;stroke-linecap:round;stroke-linejoin:round;" transform="scale(3.0,3.0)">
<g id="kvg:03065" kvg:element="ã¥">
	<path style="stroke: #bf0909;" id="kvg:03065-s1" d="M14,44.75c1.88,1.62,4.68,2.09,8.12,0.62c17.88-7.62,30-11.12,44.88-10.88c12.56,0.21,22.98,7.17,22.87,19.17c-0.18,18.77-24.75,28.71-45.01,32.08"/>
	<path style="stroke: #093ebf;" id="kvg:03065-s2" d="M81,18c2.75,1.75,6,5.38,7.75,8.5"/>
	<path style="stroke: #73bf09;" id="kvg:03065-s3" d="M87.38,13.12c3.06,1.57,6.68,4.82,8.62,7.62"/>
</g>
</g>
<g id="kvg:StrokeNumbers_03065" style="font-size:8;fill:#808080" transform="scale(3.0,3.0)">
	<text style="fill: #bf0909;" transform="matrix(1 0 0 1 9.38 40.38)">1</text>
	<text style="fill: #093ebf;" transform="matrix(1 0 0 1 73.38 17)">2</text>
	<text style="fill: #73bf09;" transform="matrix(1 0 0 1 79.51 11.88)">3</text>
</g>
</svg>
