<?xml version="1.0" encoding="UTF-8"?>

<!DOCTYPE svg PUBLIC "-//W3C//DTD SVG 1.0//EN" "http://www.w3.org/TR/2001/REC-SVG-20010904/DTD/svg10.dtd" [
<!ATTLIST g
xmlns:kvg CDATA #FIXED "http://kanjivg.tagaini.net"
kvg:element CDATA #IMPLIED
kvg:variant CDATA #IMPLIED
kvg:partial CDATA #IMPLIED
kvg:original CDATA #IMPLIED
kvg:part CDATA #IMPLIED
kvg:number CDATA #IMPLIED
kvg:tradForm CDATA #IMPLIED
kvg:radicalForm CDATA #IMPLIED
kvg:position CDATA #IMPLIED
kvg:radical CDATA #IMPLIED
kvg:phon CDATA #IMPLIED >
<!ATTLIST path
xmlns:kvg CDATA #FIXED "http://kanjivg.tagaini.net"
kvg:type CDATA #IMPLIED >
]>
<svg xmlns="http://www.w3.org/2000/svg" width="327" height = "327" viewBox="0 0 327 327">
<g id="kvg:StrokePaths_03075" style="fill:none;stroke:#000000;stroke-width:3;stroke-linecap:round;stroke-linejoin:round;" transform="scale(3.0,3.0)">
<g id="kvg:03075" kvg:element="ãµ">
	<path style="stroke: #bf0909;" id="kvg:03075-s1" d="M42.63,15.62c3.62,3.38,7.5,5.38,12.74,6.13c9.59,1.37,3.5,3.38-1.88,6.12"/>
	<path style="stroke: #093ebf;" id="kvg:03075-s2" d="M43.63,46.88c1.88,4.62,7.5,9.41,14.25,17.5c10.62,12.74,0.49,30-19.13,21.62"/>
	<path style="stroke: #73bf09;" id="kvg:03075-s3" d="M16.5,73.38c0.75,4,1.88,8.12,5,10.12c1.16,0.74,0.12-3.38,13.25-9.12"/>
	<path style="stroke: #bf09a8;" id="kvg:03075-s4" d="M80.13,61.88c5.12,3.38,10.28,7.49,11.38,8.88c6.75,8.5-0.25,4.62-4.62,7.12"/>
</g>
</g>
<g id="kvg:StrokeNumbers_03075" style="font-size:8;fill:#808080" transform="scale(3.0,3.0)">
	<text style="fill: #bf0909;" transform="matrix(1 0 0 1 36.75 13.88)">1</text>
	<text style="fill: #093ebf;" transform="matrix(1 0 0 1 37.75 43.88)">2</text>
	<text style="fill: #73bf09;" transform="matrix(1 0 0 1 13.5 67.63)">3</text>
	<text style="fill: #bf09a8;" transform="matrix(1 0 0 1 69.38 59.13)">4</text>
</g>
</svg>
