<?xml version="1.0" encoding="UTF-8"?>

<!DOCTYPE svg PUBLIC "-//W3C//DTD SVG 1.0//EN" "http://www.w3.org/TR/2001/REC-SVG-20010904/DTD/svg10.dtd" [
<!ATTLIST g
xmlns:kvg CDATA #FIXED "http://kanjivg.tagaini.net"
kvg:element CDATA #IMPLIED
kvg:variant CDATA #IMPLIED
kvg:partial CDATA #IMPLIED
kvg:original CDATA #IMPLIED
kvg:part CDATA #IMPLIED
kvg:number CDATA #IMPLIED
kvg:tradForm CDATA #IMPLIED
kvg:radicalForm CDATA #IMPLIED
kvg:position CDATA #IMPLIED
kvg:radical CDATA #IMPLIED
kvg:phon CDATA #IMPLIED >
<!ATTLIST path
xmlns:kvg CDATA #FIXED "http://kanjivg.tagaini.net"
kvg:type CDATA #IMPLIED >
]>
<svg xmlns="http://www.w3.org/2000/svg" width="327" height = "327" viewBox="0 0 327 327">
<g id="kvg:StrokePaths_0308f" style="fill:none;stroke:#000000;stroke-width:3;stroke-linecap:round;stroke-linejoin:round;" transform="scale(3.0,3.0)">
<g id="kvg:0308f" kvg:element="ã‚">
	<path style="stroke: #bf0909;" id="kvg:0308f-s1" d="M38.53,14.75c1.5,1.38,2.22,3.73,2,6.38c-1,11.87-2.75,44.49-2.75,52.87c0,8.38-0.62,16.62-0.62,19.5"/>
	<path style="stroke: #093ebf;" id="kvg:0308f-s2" d="M17.53,40.75c2.12,1.38,3.68,1.3,7.5,0c5.88-2,9.8-3.16,16.25-6c4.25-1.88,6.12,0,2.75,4c-6.72,7.96-13,16.5-22.12,27.88c-7.75,9.66-7.54,12.21,3,2.88c21.88-19.38,49.75-35.62,63.5-21c14.36,15.27,1.62,36.62-23.38,42.62"/>
</g>
</g>
<g id="kvg:StrokeNumbers_0308f" style="font-size:8;fill:#808080" transform="scale(3.0,3.0)">
	<text style="fill: #bf0909;" transform="matrix(1 0 0 1 31.16 13.25)">1</text>
	<text style="fill: #093ebf;" transform="matrix(1 0 0 1 12.41 36.25)">2</text>
</g>
</svg>
