<?xml version="1.0" encoding="UTF-8"?>

<!DOCTYPE svg PUBLIC "-//W3C//DTD SVG 1.0//EN" "http://www.w3.org/TR/2001/REC-SVG-20010904/DTD/svg10.dtd" [
<!ATTLIST g
xmlns:kvg CDATA #FIXED "http://kanjivg.tagaini.net"
kvg:element CDATA #IMPLIED
kvg:variant CDATA #IMPLIED
kvg:partial CDATA #IMPLIED
kvg:original CDATA #IMPLIED
kvg:part CDATA #IMPLIED
kvg:number CDATA #IMPLIED
kvg:tradForm CDATA #IMPLIED
kvg:radicalForm CDATA #IMPLIED
kvg:position CDATA #IMPLIED
kvg:radical CDATA #IMPLIED
kvg:phon CDATA #IMPLIED >
<!ATTLIST path
xmlns:kvg CDATA #FIXED "http://kanjivg.tagaini.net"
kvg:type CDATA #IMPLIED >
]>
<svg xmlns="http://www.w3.org/2000/svg" width="327" height = "327" viewBox="0 0 327 327">
<g id="kvg:StrokePaths_03094" style="fill:none;stroke:#000000;stroke-width:3;stroke-linecap:round;stroke-linejoin:round;" transform="scale(3.0,3.0)">
<g id="kvg:03094" kvg:element="ゔ">
	<path style="stroke: #bf0909;" id="kvg:03094-s1" d="M42,16.25c5.62,2.12,9.62,3,12.88,3c8.27,0,8,1.12-0.38,5.5"/>
	<path style="stroke: #093ebf;" id="kvg:03094-s2" d="M33,43.12c2.12,1.12,4.12,2.88,8.5,1.38c4.38-1.5,12.75-7.12,18.5-7c5.75,0.12,10.25,5,10.25,18c0,15.5-8.25,30.25-24.38,41.25"/>
	<path style="stroke: #73bf09;" id="kvg:03094-s3" d="M69.74,17.75c2.75,1.75,6,5.38,7.75,8.5"/>
	<path style="stroke: #bf09a8;" id="kvg:03094-s4" d="M76.12,12.88c3.06,1.57,6.68,4.82,8.62,7.62"/>
</g>
</g>
<g id="kvg:StrokeNumbers_03094" style="font-size:8;fill:#808080" transform="scale(3.0,3.0)">
	<text style="fill: #bf0909;" transform="matrix(1 0 0 1 33.5 14.88)">1</text>
	<text style="fill: #093ebf;" transform="matrix(1 0 0 1 28.75 40.38)">2</text>
	<text style="fill: #73bf09;" transform="matrix(1 0 0 1 63.37 15.88)">3</text>
	<text style="fill: #bf09a8;" transform="matrix(1 0 0 1 69.37 11.88)">4</text>
</g>
</svg>
