<?xml version="1.0" encoding="UTF-8"?>

<!DOCTYPE svg PUBLIC "-//W3C//DTD SVG 1.0//EN" "http://www.w3.org/TR/2001/REC-SVG-20010904/DTD/svg10.dtd" [
<!ATTLIST g
xmlns:kvg CDATA #FIXED "http://kanjivg.tagaini.net"
kvg:element CDATA #IMPLIED
kvg:variant CDATA #IMPLIED
kvg:partial CDATA #IMPLIED
kvg:original CDATA #IMPLIED
kvg:part CDATA #IMPLIED
kvg:number CDATA #IMPLIED
kvg:tradForm CDATA #IMPLIED
kvg:radicalForm CDATA #IMPLIED
kvg:position CDATA #IMPLIED
kvg:radical CDATA #IMPLIED
kvg:phon CDATA #IMPLIED >
<!ATTLIST path
xmlns:kvg CDATA #FIXED "http://kanjivg.tagaini.net"
kvg:type CDATA #IMPLIED >
]>
<svg xmlns="http://www.w3.org/2000/svg" width="327" height = "327" viewBox="0 0 327 327">
<g id="kvg:StrokePaths_030b1" style="fill:none;stroke:#000000;stroke-width:3;stroke-linecap:round;stroke-linejoin:round;" transform="scale(3.0,3.0)">
<g id="kvg:030b1" kvg:element="ケ">
	<path style="stroke: #bf0909;" id="kvg:030b1-s1" d="M40.96,17.88c0.44,1.9,0.39,4.42-0.59,6.5c-4.82,10.31-9.21,19.67-18.87,30.62"/>
	<path style="stroke: #093ebf;" id="kvg:030b1-s2" d="M37.88,37.62c2.12,0.88,4.15,1.04,6.62,0.5c12.62-2.75,25.5-4.88,35.75-6.5c3.61-0.57,6.25-0.75,9.25-0.5"/>
	<path style="stroke: #73bf09;" id="kvg:030b1-s3" d="M64.46,38.88c0.44,1.9,0.5,4.27-0.08,6.5c-3.63,13.75-9.25,31.25-24.63,43.87"/>
</g>
</g>
<g id="kvg:StrokeNumbers_030b1" style="font-size:8;fill:#808080" transform="scale(3.0,3.0)">
	<text style="fill: #bf0909;" transform="matrix(1 0 0 1 32.5 17.38)">1</text>
	<text style="fill: #093ebf;" transform="matrix(1 0 0 1 41.5 34.75)">2</text>
	<text style="fill: #73bf09;" transform="matrix(1 0 0 1 56.25 44)">3</text>
</g>
</svg>
