<?xml version="1.0" encoding="UTF-8"?>

<!DOCTYPE svg PUBLIC "-//W3C//DTD SVG 1.0//EN" "http://www.w3.org/TR/2001/REC-SVG-20010904/DTD/svg10.dtd" [
<!ATTLIST g
xmlns:kvg CDATA #FIXED "http://kanjivg.tagaini.net"
kvg:element CDATA #IMPLIED
kvg:variant CDATA #IMPLIED
kvg:partial CDATA #IMPLIED
kvg:original CDATA #IMPLIED
kvg:part CDATA #IMPLIED
kvg:number CDATA #IMPLIED
kvg:tradForm CDATA #IMPLIED
kvg:radicalForm CDATA #IMPLIED
kvg:position CDATA #IMPLIED
kvg:radical CDATA #IMPLIED
kvg:phon CDATA #IMPLIED >
<!ATTLIST path
xmlns:kvg CDATA #FIXED "http://kanjivg.tagaini.net"
kvg:type CDATA #IMPLIED >
]>
<svg xmlns="http://www.w3.org/2000/svg" width="327" height = "327" viewBox="0 0 327 327">
<g id="kvg:StrokePaths_030c1" style="fill:none;stroke:#000000;stroke-width:3;stroke-linecap:round;stroke-linejoin:round;" transform="scale(3.0,3.0)">
<g id="kvg:030c1" kvg:element="ãƒ">
	<path style="stroke: #bf0909;" id="kvg:030c1-s1" d="M69.76,15.25c-0.38,2.62-2.01,4.37-3.88,5.38c-7.88,4.25-18.62,9.75-35.5,13.25"/>
	<path style="stroke: #093ebf;" id="kvg:030c1-s2" d="M18.5,51.5c2.88,0.88,4.39,1.65,7.88,1.25c22-2.5,36.38-4.25,56.12-4.88c4.88-0.15,7.88,0.51,10.88,1.51"/>
	<path style="stroke: #73bf09;" id="kvg:030c1-s3" d="M54.88,30.75c0.88,0.75,1.75,2.49,1.75,4.75c0,6.03,0.03,11.25,0.03,18.27c0,14.98-5.03,29.48-16.53,39.23"/>
</g>
</g>
<g id="kvg:StrokeNumbers_030c1" style="font-size:8;fill:#808080" transform="scale(3.0,3.0)">
	<text style="fill: #bf0909;" transform="matrix(1 0 0 1 61.76 12.63)">1</text>
	<text style="fill: #093ebf;" transform="matrix(1 0 0 1 13.63 46.75)">2</text>
	<text style="fill: #73bf09;" transform="matrix(1 0 0 1 47.76 37.63)">3</text>
</g>
</svg>
