<?xml version="1.0" encoding="UTF-8"?>

<!DOCTYPE svg PUBLIC "-//W3C//DTD SVG 1.0//EN" "http://www.w3.org/TR/2001/REC-SVG-20010904/DTD/svg10.dtd" [
<!ATTLIST g
xmlns:kvg CDATA #FIXED "http://kanjivg.tagaini.net"
kvg:element CDATA #IMPLIED
kvg:variant CDATA #IMPLIED
kvg:partial CDATA #IMPLIED
kvg:original CDATA #IMPLIED
kvg:part CDATA #IMPLIED
kvg:number CDATA #IMPLIED
kvg:tradForm CDATA #IMPLIED
kvg:radicalForm CDATA #IMPLIED
kvg:position CDATA #IMPLIED
kvg:radical CDATA #IMPLIED
kvg:phon CDATA #IMPLIED >
<!ATTLIST path
xmlns:kvg CDATA #FIXED "http://kanjivg.tagaini.net"
kvg:type CDATA #IMPLIED >
]>
<svg xmlns="http://www.w3.org/2000/svg" width="327" height = "327" viewBox="0 0 327 327">
<g id="kvg:StrokePaths_030d6" style="fill:none;stroke:#000000;stroke-width:3;stroke-linecap:round;stroke-linejoin:round;" transform="scale(3.0,3.0)">
<g id="kvg:030d6" kvg:element="ブ">
	<path style="stroke: #bf0909;" id="kvg:030d6-s1" d="M24.5,30c1.88,1.88,3.5,2.04,6.5,1.62c14.5-2,29-4.38,43.75-6.88c6.82-1.16,10.58,2.29,6.88,9.12c-10.38,19.14-21.25,39.52-50.01,53.64"/>
	<path style="stroke: #093ebf;" id="kvg:030d6-s2" d="M86,15.63c2.61,1.93,5.7,5.93,7.36,9.37"/>
	<path style="stroke: #73bf09;" id="kvg:030d6-s3" d="M92.06,10.5c2.82,1.78,6.15,5.48,7.94,8.66"/>
</g>
</g>
<g id="kvg:StrokeNumbers_030d6" style="font-size:8;fill:#808080" transform="scale(3.0,3.0)">
	<text style="fill: #bf0909;" transform="matrix(1 0 0 1 21.63 24.88)">1</text>
	<text style="fill: #093ebf;" transform="matrix(1 0 0 1 78.13 14.75)">2</text>
	<text style="fill: #73bf09;" transform="matrix(1 0 0 1 85.25 9.63)">3</text>
</g>
</svg>
