<?xml version="1.0" encoding="UTF-8"?>

<!DOCTYPE svg PUBLIC "-//W3C//DTD SVG 1.0//EN" "http://www.w3.org/TR/2001/REC-SVG-20010904/DTD/svg10.dtd" [
<!ATTLIST g
xmlns:kvg CDATA #FIXED "http://kanjivg.tagaini.net"
kvg:element CDATA #IMPLIED
kvg:variant CDATA #IMPLIED
kvg:partial CDATA #IMPLIED
kvg:original CDATA #IMPLIED
kvg:part CDATA #IMPLIED
kvg:number CDATA #IMPLIED
kvg:tradForm CDATA #IMPLIED
kvg:radicalForm CDATA #IMPLIED
kvg:position CDATA #IMPLIED
kvg:radical CDATA #IMPLIED
kvg:phon CDATA #IMPLIED >
<!ATTLIST path
xmlns:kvg CDATA #FIXED "http://kanjivg.tagaini.net"
kvg:type CDATA #IMPLIED >
]>
<svg xmlns="http://www.w3.org/2000/svg" width="327" height = "327" viewBox="0 0 327 327">
<g id="kvg:StrokePaths_04e4e" style="fill:none;stroke:#000000;stroke-width:3;stroke-linecap:round;stroke-linejoin:round;" transform="scale(3.0,3.0)">
<g id="kvg:04e4e" kvg:element="乎">
	<g id="kvg:04e4e-g1" kvg:element="丿" kvg:radical="general">
		<path style="stroke: #bf0909;" id="kvg:04e4e-s1" kvg:type="㇒" d="M68.75,12c-0.51,1.5-1.43,2.55-2.71,3.24c-7.91,4.26-16.41,8.26-33.79,12.8"/>
	</g>
	<path style="stroke: #093ebf;" id="kvg:04e4e-s2" kvg:type="㇔" d="M29.02,35.08c3.46,2.49,9.18,10.25,10.04,14.13"/>
	<path style="stroke: #73bf09;" id="kvg:04e4e-s3" kvg:type="㇒" d="M82.52,25.64c-0.11,1.03-0.23,2.1-0.77,2.98c-3.25,5.25-6.33,10.21-12.69,16.59"/>
	<path style="stroke: #bf09a8;" id="kvg:04e4e-s4" kvg:type="㇐" d="M15.25,57.2c5.26,0.59,10.47,0.46,15.63-0.4c14.18-2.05,36.21-4.92,50.62-5.5c4.61-0.32,9.19-0.15,13.75,0.49"/>
	<g id="kvg:04e4e-g2" kvg:element="亅">
		<path style="stroke: #09bfa0;" id="kvg:04e4e-s5" kvg:type="㇚" d="M51.66,24.71C61.5,35,60.5,71,57.48,89.34c-1.57,9.51-9.1,2.91-12.5,0.07"/>
	</g>
</g>
</g>
<g id="kvg:StrokeNumbers_04e4e" style="font-size:8;fill:#808080" transform="scale(3.0,3.0)">
	<text style="fill: #bf0909;" transform="matrix(1 0 0 1 59.50 10.50)">1</text>
	<text style="fill: #093ebf;" transform="matrix(1 0 0 1 21.75 38.50)">2</text>
	<text style="fill: #73bf09;" transform="matrix(1 0 0 1 73.50 26.50)">3</text>
	<text style="fill: #bf09a8;" transform="matrix(1 0 0 1 7.50 57.50)">4</text>
	<text style="fill: #09bfa0;" transform="matrix(1 0 0 1 47.50 34.50)">5</text>
</g>
</svg>
