<?xml version="1.0" encoding="UTF-8"?>

<!DOCTYPE svg PUBLIC "-//W3C//DTD SVG 1.0//EN" "http://www.w3.org/TR/2001/REC-SVG-20010904/DTD/svg10.dtd" [
<!ATTLIST g
xmlns:kvg CDATA #FIXED "http://kanjivg.tagaini.net"
kvg:element CDATA #IMPLIED
kvg:variant CDATA #IMPLIED
kvg:partial CDATA #IMPLIED
kvg:original CDATA #IMPLIED
kvg:part CDATA #IMPLIED
kvg:number CDATA #IMPLIED
kvg:tradForm CDATA #IMPLIED
kvg:radicalForm CDATA #IMPLIED
kvg:position CDATA #IMPLIED
kvg:radical CDATA #IMPLIED
kvg:phon CDATA #IMPLIED >
<!ATTLIST path
xmlns:kvg CDATA #FIXED "http://kanjivg.tagaini.net"
kvg:type CDATA #IMPLIED >
]>
<svg xmlns="http://www.w3.org/2000/svg" width="327" height = "327" viewBox="0 0 327 327">
<g id="kvg:StrokePaths_04ea1" style="fill:none;stroke:#000000;stroke-width:3;stroke-linecap:round;stroke-linejoin:round;" transform="scale(3.0,3.0)">
<g id="kvg:04ea1" kvg:element="亡">
	<g id="kvg:04ea1-g1" kvg:element="亠" kvg:radical="general">
		<path style="stroke: #bf0909;" id="kvg:04ea1-s1" kvg:type="㇑a" d="M52.79,14.36c1.61,1.61,1.96,3.64,1.96,6.14c0,4.88,0,10.43,0,15.25"/>
		<g id="kvg:04ea1-g2" kvg:element="匸" kvg:part="1" kvg:variant="true" kvg:original="匚">
			<path style="stroke: #093ebf;" id="kvg:04ea1-s2" kvg:type="㇐" d="M13.38,39.42c3.54,1.09,7.27,0.56,10.87,0.21c14.84-1.44,47.75-4.32,64-4.96c3.13-0.12,6.37-0.44,9.36,0.68"/>
		</g>
	</g>
	<g id="kvg:04ea1-g3" kvg:element="匸" kvg:part="2" kvg:variant="true" kvg:original="匚">
		<path style="stroke: #73bf09;" id="kvg:04ea1-s3" kvg:type="㇄" d="M29.75,43.5c1.06,1.06,1.5,2.88,1.5,5.25c0,12.34,0,24.04,0,28.71c0,10.04,2,12.82,27.75,12.82c12.88,0,21.63-0.41,30.5-3.2"/>
	</g>
</g>
</g>
<g id="kvg:StrokeNumbers_04ea1" style="font-size:8;fill:#808080" transform="scale(3.0,3.0)">
	<text style="fill: #bf0909;" transform="matrix(1 0 0 1 44.00 15.13)">1</text>
	<text style="fill: #093ebf;" transform="matrix(1 0 0 1 5.50 39.50)">2</text>
	<text style="fill: #73bf09;" transform="matrix(1 0 0 1 23.00 52.63)">3</text>
</g>
</svg>
