<?xml version="1.0" encoding="UTF-8"?>

<!DOCTYPE svg PUBLIC "-//W3C//DTD SVG 1.0//EN" "http://www.w3.org/TR/2001/REC-SVG-20010904/DTD/svg10.dtd" [
<!ATTLIST g
xmlns:kvg CDATA #FIXED "http://kanjivg.tagaini.net"
kvg:element CDATA #IMPLIED
kvg:variant CDATA #IMPLIED
kvg:partial CDATA #IMPLIED
kvg:original CDATA #IMPLIED
kvg:part CDATA #IMPLIED
kvg:number CDATA #IMPLIED
kvg:tradForm CDATA #IMPLIED
kvg:radicalForm CDATA #IMPLIED
kvg:position CDATA #IMPLIED
kvg:radical CDATA #IMPLIED
kvg:phon CDATA #IMPLIED >
<!ATTLIST path
xmlns:kvg CDATA #FIXED "http://kanjivg.tagaini.net"
kvg:type CDATA #IMPLIED >
]>
<svg xmlns="http://www.w3.org/2000/svg" width="327" height = "327" viewBox="0 0 327 327">
<g id="kvg:StrokePaths_04ed8" style="fill:none;stroke:#000000;stroke-width:3;stroke-linecap:round;stroke-linejoin:round;" transform="scale(3.0,3.0)">
<g id="kvg:04ed8" kvg:element="付">
	<g id="kvg:04ed8-g1" kvg:element="亻" kvg:variant="true" kvg:original="人" kvg:position="left" kvg:radical="general">
		<path style="stroke: #bf0909;" id="kvg:04ed8-s1" kvg:type="㇒" d="M38.12,14.62c0.25,2.06-0.07,3.73-0.89,5.5C32.03,31.39,24.93,45.58,13,59.29"/>
		<path style="stroke: #093ebf;" id="kvg:04ed8-s2" kvg:type="㇑" d="M29.03,40.75c1.05,1.05,1.51,2.38,1.51,4.23c0,10.19-0.36,31.65-0.5,43.4C30.02,91.12,30,93.33,30,94.75"/>
	</g>
	<g id="kvg:04ed8-g2" kvg:element="寸" kvg:position="right">
		<path style="stroke: #73bf09;" id="kvg:04ed8-s3" kvg:type="㇐" d="M40.88,42.17c2.46,0.58,5.19,0.55,7.03,0.3c13.46-1.85,28.71-4.22,43.92-5.18c3.05-0.19,4.89-0.12,6.42,0.28"/>
		<path style="stroke: #bf09a8;" id="kvg:04ed8-s4" kvg:type="㇚" d="M74.27,12.83c1.2,1.2,1.76,2.92,1.76,4.77c0,14.52-0.01,67.91-0.01,72.87c0,9.28-6.27,3.41-8.96,0.75"/>
		<path style="stroke: #09bfa0;" id="kvg:04ed8-s5" kvg:type="㇔" d="M50.12,56.62c3.29,2.38,8.51,9.79,9.33,13.49"/>
	</g>
</g>
</g>
<g id="kvg:StrokeNumbers_04ed8" style="font-size:8;fill:#808080" transform="scale(3.0,3.0)">
	<text style="fill: #bf0909;" transform="matrix(1 0 0 1 28.50 14.50)">1</text>
	<text style="fill: #093ebf;" transform="matrix(1 0 0 1 22.50 58.63)">2</text>
	<text style="fill: #73bf09;" transform="matrix(1 0 0 1 42.75 39.13)">3</text>
	<text style="fill: #bf09a8;" transform="matrix(1 0 0 1 64.50 13.50)">4</text>
	<text style="fill: #09bfa0;" transform="matrix(1 0 0 1 42.50 55.63)">5</text>
</g>
</svg>
