<?xml version="1.0" encoding="UTF-8"?>

<!DOCTYPE svg PUBLIC "-//W3C//DTD SVG 1.0//EN" "http://www.w3.org/TR/2001/REC-SVG-20010904/DTD/svg10.dtd" [
<!ATTLIST g
xmlns:kvg CDATA #FIXED "http://kanjivg.tagaini.net"
kvg:element CDATA #IMPLIED
kvg:variant CDATA #IMPLIED
kvg:partial CDATA #IMPLIED
kvg:original CDATA #IMPLIED
kvg:part CDATA #IMPLIED
kvg:number CDATA #IMPLIED
kvg:tradForm CDATA #IMPLIED
kvg:radicalForm CDATA #IMPLIED
kvg:position CDATA #IMPLIED
kvg:radical CDATA #IMPLIED
kvg:phon CDATA #IMPLIED >
<!ATTLIST path
xmlns:kvg CDATA #FIXED "http://kanjivg.tagaini.net"
kvg:type CDATA #IMPLIED >
]>
<svg xmlns="http://www.w3.org/2000/svg" width="327" height = "327" viewBox="0 0 327 327">
<g id="kvg:StrokePaths_04eed" style="fill:none;stroke:#000000;stroke-width:3;stroke-linecap:round;stroke-linejoin:round;" transform="scale(3.0,3.0)">
<g id="kvg:04eed" kvg:element="仭">
	<g id="kvg:04eed-g1" kvg:element="亻" kvg:variant="true" kvg:original="人" kvg:position="left" kvg:radical="general">
		<path style="stroke: #bf0909;" id="kvg:04eed-s1" kvg:type="㇒" d="M32.49,15.39c0.13,1.16,0.23,2.61-0.12,4.03c-2.24,8.99-10.89,26.36-21.31,38.55"/>
		<path style="stroke: #093ebf;" id="kvg:04eed-s2" kvg:type="㇑" d="M26.53,39.5c0.59,0.61,0.76,1.97,0.76,3.23c0,13.02-0.29,43.15-0.29,51.9"/>
	</g>
	<g id="kvg:04eed-g2" kvg:element="刄" kvg:position="right">
		<g id="kvg:04eed-g3" kvg:element="刀">
			<path style="stroke: #73bf09;" id="kvg:04eed-s3" kvg:type="㇆" d="M45.22,24.4c1.66,0.83,3.73,0.57,5.21,0.45C61,24,78,21.61,84.57,20.76c4.27-0.55,6.17,1.66,5.93,5.55c-0.63,10.25-7.55,50.13-13.37,61.91c-4.22,8.55-6.69,5.81-9.88,0.26"/>
			<g id="kvg:04eed-g4" kvg:element="乂" kvg:part="1">
				<g id="kvg:04eed-g5" kvg:element="丿">
					<path style="stroke: #bf09a8;" id="kvg:04eed-s4" kvg:type="㇒" d="M63.94,27.33c0.07,1.39,0.1,3.59-0.14,5.6c-2.35,19.6-8.74,39.48-24.05,56.94"/>
				</g>
			</g>
		</g>
		<g id="kvg:04eed-g6" kvg:element="乂" kvg:part="2">
			<path style="stroke: #09bfa0;" id="kvg:04eed-s5" kvg:type="㇏" d="M42,39.5c1.77,0,2.84,0.57,3.65,1.39C55.19,50.53,79,77.25,90.4,84.72c2.78,1.82,4.61,3.15,7.1,3.78"/>
		</g>
	</g>
</g>
</g>
<g id="kvg:StrokeNumbers_04eed" style="font-size:8;fill:#808080" transform="scale(3.0,3.0)">
	<text style="fill: #bf0909;" transform="matrix(1 0 0 1 23.50 14.50)">1</text>
	<text style="fill: #093ebf;" transform="matrix(1 0 0 1 20.50 57.50)">2</text>
	<text style="fill: #73bf09;" transform="matrix(1 0 0 1 42.50 21.50)">3</text>
	<text style="fill: #bf09a8;" transform="matrix(1 0 0 1 56.50 34.50)">4</text>
	<text style="fill: #09bfa0;" transform="matrix(1 0 0 1 35.50 40.50)">5</text>
</g>
</svg>
