<?xml version="1.0" encoding="UTF-8"?>

<!DOCTYPE svg PUBLIC "-//W3C//DTD SVG 1.0//EN" "http://www.w3.org/TR/2001/REC-SVG-20010904/DTD/svg10.dtd" [
<!ATTLIST g
xmlns:kvg CDATA #FIXED "http://kanjivg.tagaini.net"
kvg:element CDATA #IMPLIED
kvg:variant CDATA #IMPLIED
kvg:partial CDATA #IMPLIED
kvg:original CDATA #IMPLIED
kvg:part CDATA #IMPLIED
kvg:number CDATA #IMPLIED
kvg:tradForm CDATA #IMPLIED
kvg:radicalForm CDATA #IMPLIED
kvg:position CDATA #IMPLIED
kvg:radical CDATA #IMPLIED
kvg:phon CDATA #IMPLIED >
<!ATTLIST path
xmlns:kvg CDATA #FIXED "http://kanjivg.tagaini.net"
kvg:type CDATA #IMPLIED >
]>
<svg xmlns="http://www.w3.org/2000/svg" width="327" height = "327" viewBox="0 0 327 327">
<g id="kvg:StrokePaths_04f86" style="fill:none;stroke:#000000;stroke-width:3;stroke-linecap:round;stroke-linejoin:round;" transform="scale(3.0,3.0)">
<g id="kvg:04f86" kvg:element="來">
	<g id="kvg:04f86-g1" kvg:element="木" kvg:part="1">
		<path style="stroke: #bf0909;" id="kvg:04f86-s1" kvg:type="㇐" d="M18.25,30.96c1.89,0.7,4.05,0.93,6.23,0.7c11.1-1.15,43.31-5.15,60.09-6.5c2.16-0.17,3.52,0.12,5.68,0.62"/>
	</g>
	<g id="kvg:04f86-g2" kvg:element="从">
		<g id="kvg:04f86-g3" kvg:element="人" kvg:position="left" kvg:radical="tradit">
			<path style="stroke: #093ebf;" id="kvg:04f86-s2" kvg:type="㇒" d="M33.5,38.49c0,0.65,0.08,1.2-0.13,1.95c-1.93,7.07-7.69,15.87-16.15,23.68"/>
			<path style="stroke: #73bf09;" id="kvg:04f86-s3" kvg:type="㇔/㇏" d="M32.14,49.46c3.3,1.87,7.51,6.83,9.11,11.54"/>
		</g>
		<g id="kvg:04f86-g4" kvg:element="人" kvg:position="right" kvg:radical="tradit">
			<path style="stroke: #bf09a8;" id="kvg:04f86-s4" kvg:type="㇒" d="M77.76,34.24c0,0.52,0.11,0.97-0.1,1.56c-1.82,5.1-7.01,14.18-13.18,19.32"/>
			<path style="stroke: #09bfa0;" id="kvg:04f86-s5" kvg:type="㇔/㇏" d="M75.14,45.21c4.7,3.39,8.3,7.64,11.11,12.79"/>
		</g>
	</g>
	<g id="kvg:04f86-g5" kvg:element="木" kvg:part="2">
		<path style="stroke: #bf6b09;" id="kvg:04f86-s6" kvg:type="㇑" d="M52.25,10.75c1.25,0.5,2.25,2.22,2.25,3.25c0,10.5,0,79.75-0.25,86"/>
		<g id="kvg:04f86-g6" kvg:element="丿" kvg:radical="nelson">
			<path style="stroke: #3609bf;" id="kvg:04f86-s7" kvg:type="㇒" d="M54.25,53.75c-6.77,12.28-24.92,31.05-39,38"/>
		</g>
		<path style="stroke: #11bf09;" id="kvg:04f86-s8" kvg:type="㇏" d="M54.5,55c4.75,4.39,27.09,26.42,32.25,30.74c1.75,1.46,3.25,2.09,5,2.51"/>
	</g>
</g>
</g>
<g id="kvg:StrokeNumbers_04f86" style="font-size:8;fill:#808080" transform="scale(3.0,3.0)">
	<text style="fill: #bf0909;" transform="matrix(1 0 0 1 11.50 31.50)">1</text>
	<text style="fill: #093ebf;" transform="matrix(1 0 0 1 24.50 41.50)">2</text>
	<text style="fill: #73bf09;" transform="matrix(1 0 0 1 36.50 50.50)">3</text>
	<text style="fill: #bf09a8;" transform="matrix(1 0 0 1 68.50 36.50)">4</text>
	<text style="fill: #09bfa0;" transform="matrix(1 0 0 1 81.50 47.33)">5</text>
	<text style="fill: #bf6b09;" transform="matrix(1 0 0 1 42.25 11.25)">6</text>
	<text style="fill: #3609bf;" transform="matrix(1 0 0 1 45.50 55.50)">7</text>
	<text style="fill: #11bf09;" transform="matrix(1 0 0 1 72.25 67.10)">8</text>
</g>
</svg>
