<?xml version="1.0" encoding="UTF-8"?>

<!DOCTYPE svg PUBLIC "-//W3C//DTD SVG 1.0//EN" "http://www.w3.org/TR/2001/REC-SVG-20010904/DTD/svg10.dtd" [
<!ATTLIST g
xmlns:kvg CDATA #FIXED "http://kanjivg.tagaini.net"
kvg:element CDATA #IMPLIED
kvg:variant CDATA #IMPLIED
kvg:partial CDATA #IMPLIED
kvg:original CDATA #IMPLIED
kvg:part CDATA #IMPLIED
kvg:number CDATA #IMPLIED
kvg:tradForm CDATA #IMPLIED
kvg:radicalForm CDATA #IMPLIED
kvg:position CDATA #IMPLIED
kvg:radical CDATA #IMPLIED
kvg:phon CDATA #IMPLIED >
<!ATTLIST path
xmlns:kvg CDATA #FIXED "http://kanjivg.tagaini.net"
kvg:type CDATA #IMPLIED >
]>
<svg xmlns="http://www.w3.org/2000/svg" width="327" height = "327" viewBox="0 0 327 327">
<g id="kvg:StrokePaths_0506c" style="fill:none;stroke:#000000;stroke-width:3;stroke-linecap:round;stroke-linejoin:round;" transform="scale(3.0,3.0)">
<g id="kvg:0506c" kvg:element="偬">
	<g id="kvg:0506c-g1" kvg:element="亻" kvg:variant="true" kvg:original="人" kvg:position="left" kvg:radical="general">
		<path style="stroke: #bf0909;" id="kvg:0506c-s1" kvg:type="㇒" d="M31.94,17c0.13,1.22,0.23,2.74-0.12,4.24C29.6,30.7,21.05,49,10.75,61.82"/>
		<path style="stroke: #093ebf;" id="kvg:0506c-s2" kvg:type="㇑" d="M25.48,43.61c0.59,0.61,0.76,1.97,0.76,3.23c0,13.02-0.29,38.65-0.29,47.4"/>
	</g>
	<g id="kvg:0506c-g2" kvg:element="怱" kvg:position="right">
		<g id="kvg:0506c-g3" kvg:element="匆" kvg:position="top">
			<g id="kvg:0506c-g4" kvg:element="勿">
				<g id="kvg:0506c-g5" kvg:element="勹">
					<path style="stroke: #73bf09;" id="kvg:0506c-s3" kvg:type="㇒" d="M53.45,14c0.04,0.56,0.08,1.44-0.08,2.24c-0.97,4.72-6.32,14.03-13.67,21.44"/>
					<path style="stroke: #bf09a8;" id="kvg:0506c-s4" kvg:type="㇆" d="M53.09,25.47c0.75,0.37,1.78,0.37,3,0.24c4.66-0.47,26.62-4.72,29.62-4.84c3-0.12,2.94,2.12,2.76,4.74c-0.54,8.1-4.72,25.89-10.67,36.95c-2.81,5.24-5.7,0.36-7.1-2.03"/>
				</g>
				<path style="stroke: #09bfa0;" id="kvg:0506c-s5" kvg:type="㇒" d="M59.6,28.37c0.05,0.6,0.13,1.56-0.09,2.4c-2.17,8.28-7.35,16.16-15.93,22.96"/>
				<path style="stroke: #bf6b09;" id="kvg:0506c-s6" kvg:type="㇒" d="M73.23,25.94c0.06,0.83,0.12,2.13-0.11,3.31c-1.33,6.99-8.54,22.32-18.99,31.7"/>
			</g>
			<path style="stroke: #3609bf;" id="kvg:0506c-s7" kvg:type="㇔" d="M50.86,36.79c6.96,2.66,17.99,10.92,19.73,15.05"/>
		</g>
		<g id="kvg:0506c-g6" kvg:element="心" kvg:position="bottom">
			<path style="stroke: #11bf09;" id="kvg:0506c-s8" kvg:type="㇔" d="M39.65,76.86c0.32,2.26-3.23,12.26-5.82,16.03"/>
			<path style="stroke: #bf0946;" id="kvg:0506c-s9" kvg:type="㇃" d="M48.66,70.17C54.5,85.5,62.75,93.5,77.72,96.19c11.49,2.06,12.03-1.69,4.38-8.84"/>
			<path style="stroke: #097bbf;" id="kvg:0506c-s10" kvg:type="㇔a" d="M63.72,72.51c1.78,4.58,4.38,9.15,6.29,2.15"/>
			<path style="stroke: #b0bf09;" id="kvg:0506c-s11" kvg:type="㇔" d="M85.18,70.5c4.9,2.4,8.58,4.58,12.56,11.99"/>
		</g>
	</g>
</g>
</g>
<g id="kvg:StrokeNumbers_0506c" style="font-size:8;fill:#808080" transform="scale(3.0,3.0)">
	<text style="fill: #bf0909;" transform="matrix(1 0 0 1 23.50 16.50)">1</text>
	<text style="fill: #093ebf;" transform="matrix(1 0 0 1 18.50 62.50)">2</text>
	<text style="fill: #73bf09;" transform="matrix(1 0 0 1 44.50 14.50)">3</text>
	<text style="fill: #bf09a8;" transform="matrix(1 0 0 1 58.50 21.50)">4</text>
	<text style="fill: #09bfa0;" transform="matrix(1 0 0 1 51.50 34.50)">5</text>
	<text style="fill: #bf6b09;" transform="matrix(1 0 0 1 64.50 31.50)">6</text>
	<text style="fill: #3609bf;" transform="matrix(1 0 0 1 44.50 41.50)">7</text>
	<text style="fill: #11bf09;" transform="matrix(1 0 0 1 33.50 74.10)">8</text>
	<text style="fill: #bf0946;" transform="matrix(1 0 0 1 44.50 81.50)">9</text>
	<text style="fill: #097bbf;" transform="matrix(1 0 0 1 54.50 70.50)">10</text>
	<text style="fill: #b0bf09;" transform="matrix(1 0 0 1 77.50 76.50)">11</text>
</g>
</svg>
