<?xml version="1.0" encoding="UTF-8"?>

<!DOCTYPE svg PUBLIC "-//W3C//DTD SVG 1.0//EN" "http://www.w3.org/TR/2001/REC-SVG-20010904/DTD/svg10.dtd" [
<!ATTLIST g
xmlns:kvg CDATA #FIXED "http://kanjivg.tagaini.net"
kvg:element CDATA #IMPLIED
kvg:variant CDATA #IMPLIED
kvg:partial CDATA #IMPLIED
kvg:original CDATA #IMPLIED
kvg:part CDATA #IMPLIED
kvg:number CDATA #IMPLIED
kvg:tradForm CDATA #IMPLIED
kvg:radicalForm CDATA #IMPLIED
kvg:position CDATA #IMPLIED
kvg:radical CDATA #IMPLIED
kvg:phon CDATA #IMPLIED >
<!ATTLIST path
xmlns:kvg CDATA #FIXED "http://kanjivg.tagaini.net"
kvg:type CDATA #IMPLIED >
]>
<svg xmlns="http://www.w3.org/2000/svg" width="327" height = "327" viewBox="0 0 327 327">
<g id="kvg:StrokePaths_05186" style="fill:none;stroke:#000000;stroke-width:3;stroke-linecap:round;stroke-linejoin:round;" transform="scale(3.0,3.0)">
<g id="kvg:05186" kvg:element="円">
	<g id="kvg:05186-g1" kvg:element="冂" kvg:radical="general">
		<path style="stroke: #bf0909;" id="kvg:05186-s1" kvg:type="㇑" d="M21.75,19.8c0.91,0.91,1.47,3.23,1.5,5.45c0.2,13.9,0.03,47.69,0.03,62.5c0,2-0.03,4.99-0.03,6"/>
		<path style="stroke: #093ebf;" id="kvg:05186-s2" kvg:type="㇆a" d="M24.06,21.56c15.07-1.68,49.46-5.58,57.92-6.31c2.9-0.25,4.78,1.88,4.78,4.27c0,13.48,0,53.21,0,67.48c0,9.75-4.25,6.5-8.5,1.5"/>
	</g>
	<g id="kvg:05186-g2" kvg:phon="員V">
		<path style="stroke: #73bf09;" id="kvg:05186-s3" kvg:type="㇑a" d="M52.25,20.75c0.88,0.88,1.5,2,1.5,3.71c0,6.76,0,27.54,0,31.04"/>
		<path style="stroke: #bf09a8;" id="kvg:05186-s4" kvg:type="㇐a" d="M24.75,59.75c14.62-1.75,43-4.25,60.5-5.25"/>
	</g>
</g>
</g>
<g id="kvg:StrokeNumbers_05186" style="font-size:8;fill:#808080" transform="scale(3.0,3.0)">
	<text style="fill: #bf0909;" transform="matrix(1 0 0 1 16.50 28.63)">1</text>
	<text style="fill: #093ebf;" transform="matrix(1 0 0 1 24.75 17.50)">2</text>
	<text style="fill: #73bf09;" transform="matrix(1 0 0 1 45.50 29.50)">3</text>
	<text style="fill: #bf09a8;" transform="matrix(1 0 0 1 28.50 56.50)">4</text>
</g>
</svg>
