<?xml version="1.0" encoding="UTF-8"?>

<!DOCTYPE svg PUBLIC "-//W3C//DTD SVG 1.0//EN" "http://www.w3.org/TR/2001/REC-SVG-20010904/DTD/svg10.dtd" [
<!ATTLIST g
xmlns:kvg CDATA #FIXED "http://kanjivg.tagaini.net"
kvg:element CDATA #IMPLIED
kvg:variant CDATA #IMPLIED
kvg:partial CDATA #IMPLIED
kvg:original CDATA #IMPLIED
kvg:part CDATA #IMPLIED
kvg:number CDATA #IMPLIED
kvg:tradForm CDATA #IMPLIED
kvg:radicalForm CDATA #IMPLIED
kvg:position CDATA #IMPLIED
kvg:radical CDATA #IMPLIED
kvg:phon CDATA #IMPLIED >
<!ATTLIST path
xmlns:kvg CDATA #FIXED "http://kanjivg.tagaini.net"
kvg:type CDATA #IMPLIED >
]>
<svg xmlns="http://www.w3.org/2000/svg" width="327" height = "327" viewBox="0 0 327 327">
<g id="kvg:StrokePaths_053df" style="fill:none;stroke:#000000;stroke-width:3;stroke-linecap:round;stroke-linejoin:round;" transform="scale(3.0,3.0)">
<g id="kvg:053df" kvg:element="叟">
	<g id="kvg:053df-g1" kvg:position="top">
		<path style="stroke: #bf0909;" id="kvg:053df-s1" kvg:type="㇑" d="M52.25,10.25c1.25,0.5,2,2.25,2.25,3.25s0,41.75-0.25,48"/>
		<g id="kvg:053df-g2" kvg:element="𦥑" kvg:variant="true" kvg:original="臼">
			<path style="stroke: #093ebf;" id="kvg:053df-s2" kvg:type="㇒" d="M43.51,15.71c0.05,0.25-0.28,1.24-0.6,1.52c-4.28,3.62-8.26,6.35-18.01,9.23"/>
			<path style="stroke: #73bf09;" id="kvg:053df-s3" kvg:type="㇑" d="M24.24,24.92c0.84,0.75,1.19,2.42,1.4,3.96c0.76,5.61,2.67,16.53,3.44,24.12"/>
			<path style="stroke: #bf09a8;" id="kvg:053df-s4" kvg:type="㇐" d="M27.09,36.66c4.17-0.34,13.7-2.21,14.69-2.21s2.38,0,3.18,0"/>
			<path style="stroke: #09bfa0;" id="kvg:053df-s5" kvg:type="㇐" d="M 29.28,51.662003 c 4.750734,-0.961399 14.3008,-1.357192 17.228257,-1.143708"/>
			<path style="stroke: #bf6b09;" id="kvg:053df-s6" kvg:type="㇕" d="M62.9,18.71c0.99,0.17,1.79,0.51,3.18,0.51S81.18,17.17,82.77,17s2.91,0.84,2.78,1.88c-1.19,9.89-4.47,29.56-4.67,30.24"/>
			<path style="stroke: #3609bf;" id="kvg:053df-s7" kvg:type="㇐" d="M62.8,33.27c0.99,0.17,1.79,0.51,3.18,0.51s15.7-0.86,17.29-1.04"/>
			<path style="stroke: #11bf09;" id="kvg:053df-s8" kvg:type="㇐" d="M 62.806092,48.744611 c 1.380267,0.223658 2.644375,0.349456 3.825641,0.301662 4.231262,-0.1712 9.439223,-0.303205 13.228543,-0.469112"/>
		</g>
	</g>
	<g id="kvg:053df-g3" kvg:element="又" kvg:position="bottom" kvg:radical="general">
		<path style="stroke: #bf0946;" id="kvg:053df-s9" kvg:type="㇇" d="M31.5,63.71c2,0.28,2.28,0.91,6.25,0.28C44,63,70.5,59.88,73.25,59.46c2.75-0.42,3.93,2.7,2.75,4.12C61.75,80.75,42,92.55,19.5,99.5"/>
		<path style="stroke: #097bbf;" id="kvg:053df-s10" kvg:type="㇏" d="M35.5,70.83C43,71,64.9,89.72,82.3,97.18c2.71,1.16,4.68,1.94,7.2,2.32"/>
	</g>
</g>
</g>
<g id="kvg:StrokeNumbers_053df" style="font-size:8;fill:#808080" transform="scale(3.0,3.0)">
	<text style="fill: #bf0909;" transform="matrix(1 0 0 1 46.50 9.68)">1</text>
	<text style="fill: #093ebf;" transform="matrix(1 0 0 1 36.75 14.50)">2</text>
	<text style="fill: #73bf09;" transform="matrix(1 0 0 1 17.50 34.50)">3</text>
	<text style="fill: #bf09a8;" transform="matrix(1 0 0 1 31.50 32.66)">4</text>
	<text style="fill: #09bfa0;" transform="matrix(1 0 0 1 32.69 47.50)">5</text>
	<text style="fill: #bf6b09;" transform="matrix(1 0 0 1 61.50 15.50)">6</text>
	<text style="fill: #3609bf;" transform="matrix(1 0 0 1 61.50 30.50)">7</text>
	<text style="fill: #11bf09;" transform="matrix(1 0 0 1 62.3 46.3)">8</text>
	<text style="fill: #bf0946;" transform="matrix(1 0 0 1 23.50 64.50)">9</text>
	<text style="fill: #097bbf;" transform="matrix(1 0 0 1 25 73.50)">10</text>
</g>
</svg>
