<?xml version="1.0" encoding="UTF-8"?>

<!DOCTYPE svg PUBLIC "-//W3C//DTD SVG 1.0//EN" "http://www.w3.org/TR/2001/REC-SVG-20010904/DTD/svg10.dtd" [
<!ATTLIST g
xmlns:kvg CDATA #FIXED "http://kanjivg.tagaini.net"
kvg:element CDATA #IMPLIED
kvg:variant CDATA #IMPLIED
kvg:partial CDATA #IMPLIED
kvg:original CDATA #IMPLIED
kvg:part CDATA #IMPLIED
kvg:number CDATA #IMPLIED
kvg:tradForm CDATA #IMPLIED
kvg:radicalForm CDATA #IMPLIED
kvg:position CDATA #IMPLIED
kvg:radical CDATA #IMPLIED
kvg:phon CDATA #IMPLIED >
<!ATTLIST path
xmlns:kvg CDATA #FIXED "http://kanjivg.tagaini.net"
kvg:type CDATA #IMPLIED >
]>
<svg xmlns="http://www.w3.org/2000/svg" width="327" height = "327" viewBox="0 0 327 327">
<g id="kvg:StrokePaths_056e0" style="fill:none;stroke:#000000;stroke-width:3;stroke-linecap:round;stroke-linejoin:round;" transform="scale(3.0,3.0)">
<g id="kvg:056e0" kvg:element="因">
	<g id="kvg:056e0-g1" kvg:element="囗" kvg:part="1" kvg:position="kamae" kvg:radical="general">
		<path style="stroke: #bf0909;" id="kvg:056e0-s1" kvg:type="㇑" d="M18.75,16.32c1.22,1.22,1.86,3.01,1.86,4.91c0,12.2-0.05,48.6-0.06,68.4c0,2.96,0,5.54,0,7.62"/>
		<path style="stroke: #093ebf;" id="kvg:056e0-s2" kvg:type="㇕a" d="M21.23,18.4c18.9-1.27,51.45-3.15,63.52-3.15c2.75,0,4.55,1.74,4.5,4.75c-0.22,13.86-0.05,45.05-0.01,67.75c0.01,3.1,0.01,6.04,0.01,8.75"/>
	</g>
	<g id="kvg:056e0-g2" kvg:element="大">
		<path style="stroke: #73bf09;" id="kvg:056e0-s3" kvg:type="㇐" d="M32.11,45.55c2.2,0.53,4.69,0.23,6.89,0c10.93-1.16,23.62-2.45,33.64-3.32c2.15-0.19,4.36-0.35,6.41,0"/>
		<path style="stroke: #bf09a8;" id="kvg:056e0-s4" kvg:type="㇒" d="M53.55,24.5c0.41,0.81,0.62,1.73,0.61,3.47C54.12,56.38,46,73,29.75,83.25"/>
		<path style="stroke: #09bfa0;" id="kvg:056e0-s5" kvg:type="㇔/㇏" d="M54.97,54.31c8.18,5.54,18.49,15.5,23.44,26.3"/>
	</g>
	<g id="kvg:056e0-g3" kvg:element="囗" kvg:part="2" kvg:position="kamae" kvg:radical="general">
		<path style="stroke: #bf6b09;" id="kvg:056e0-s6" kvg:type="㇐a" d="M21.75,94.51C41.62,93.75,69.96,92.41,88,92"/>
	</g>
</g>
</g>
<g id="kvg:StrokeNumbers_056e0" style="font-size:8;fill:#808080" transform="scale(3.0,3.0)">
	<text style="fill: #bf0909;" transform="matrix(1 0 0 1 13.50 26.50)">1</text>
	<text style="fill: #093ebf;" transform="matrix(1 0 0 1 23.50 15.50)">2</text>
	<text style="fill: #73bf09;" transform="matrix(1 0 0 1 30.50 42.50)">3</text>
	<text style="fill: #bf09a8;" transform="matrix(1 0 0 1 44.50 26.50)">4</text>
	<text style="fill: #09bfa0;" transform="matrix(1 0 0 1 57.50 54.50)">5</text>
	<text style="fill: #bf6b09;" transform="matrix(1 0 0 1 25.12 91.25)">6</text>
</g>
</svg>
