<?xml version="1.0" encoding="UTF-8"?>

<!DOCTYPE svg PUBLIC "-//W3C//DTD SVG 1.0//EN" "http://www.w3.org/TR/2001/REC-SVG-20010904/DTD/svg10.dtd" [
<!ATTLIST g
xmlns:kvg CDATA #FIXED "http://kanjivg.tagaini.net"
kvg:element CDATA #IMPLIED
kvg:variant CDATA #IMPLIED
kvg:partial CDATA #IMPLIED
kvg:original CDATA #IMPLIED
kvg:part CDATA #IMPLIED
kvg:number CDATA #IMPLIED
kvg:tradForm CDATA #IMPLIED
kvg:radicalForm CDATA #IMPLIED
kvg:position CDATA #IMPLIED
kvg:radical CDATA #IMPLIED
kvg:phon CDATA #IMPLIED >
<!ATTLIST path
xmlns:kvg CDATA #FIXED "http://kanjivg.tagaini.net"
kvg:type CDATA #IMPLIED >
]>
<svg xmlns="http://www.w3.org/2000/svg" width="327" height = "327" viewBox="0 0 327 327">
<g id="kvg:StrokePaths_0571f" style="fill:none;stroke:#000000;stroke-width:3;stroke-linecap:round;stroke-linejoin:round;" transform="scale(3.0,3.0)">
<g id="kvg:0571f" kvg:element="土" kvg:radical="general">
	<path style="stroke: #bf0909;" id="kvg:0571f-s1" kvg:type="㇐" d="M26.63,50.89c1.63,0.4,4.64,0.6,6.26,0.4C43.5,50,62.12,48,75.66,46.92c2.71-0.22,4.36,0.19,5.72,0.39"/>
	<path style="stroke: #093ebf;" id="kvg:0571f-s2" kvg:type="㇑a" d="M52.17,17.37c1.17,1.17,2.02,3.13,2.02,4.64c0,10.25,0.14,61.06,0.14,63.36"/>
	<path style="stroke: #73bf09;" id="kvg:0571f-s3" kvg:type="㇐" d="M15.38,87.73c2.12,0.54,6.01,0.73,8.12,0.54C46,86.25,69,84.62,90.34,83.79c3.53-0.14,5.65,0.26,7.41,0.53"/>
</g>
</g>
<g id="kvg:StrokeNumbers_0571f" style="font-size:8;fill:#808080" transform="scale(3.0,3.0)">
	<text style="fill: #bf0909;" transform="matrix(1 0 0 1 19.50 51.13)">1</text>
	<text style="fill: #093ebf;" transform="matrix(1 0 0 1 41.50 17.50)">2</text>
	<text style="fill: #73bf09;" transform="matrix(1 0 0 1 6.50 86.50)">3</text>
</g>
</svg>
