<?xml version="1.0" encoding="UTF-8"?>

<!DOCTYPE svg PUBLIC "-//W3C//DTD SVG 1.0//EN" "http://www.w3.org/TR/2001/REC-SVG-20010904/DTD/svg10.dtd" [
<!ATTLIST g
xmlns:kvg CDATA #FIXED "http://kanjivg.tagaini.net"
kvg:element CDATA #IMPLIED
kvg:variant CDATA #IMPLIED
kvg:partial CDATA #IMPLIED
kvg:original CDATA #IMPLIED
kvg:part CDATA #IMPLIED
kvg:number CDATA #IMPLIED
kvg:tradForm CDATA #IMPLIED
kvg:radicalForm CDATA #IMPLIED
kvg:position CDATA #IMPLIED
kvg:radical CDATA #IMPLIED
kvg:phon CDATA #IMPLIED >
<!ATTLIST path
xmlns:kvg CDATA #FIXED "http://kanjivg.tagaini.net"
kvg:type CDATA #IMPLIED >
]>
<svg xmlns="http://www.w3.org/2000/svg" width="327" height = "327" viewBox="0 0 327 327">
<g id="kvg:StrokePaths_058eb" style="fill:none;stroke:#000000;stroke-width:3;stroke-linecap:round;stroke-linejoin:round;" transform="scale(3.0,3.0)">
<g id="kvg:058eb" kvg:element="士" kvg:radical="general">
	<path style="stroke: #bf0909;" id="kvg:058eb-s1" kvg:type="㇐" d="M13.13,54.98c3.87,0.9,7.66,0.43,11.36,0.16c18.76-1.39,44.96-3.08,61.9-3.32c3.22-0.05,6.57,0.08,9.74,0.76"/>
	<path style="stroke: #093ebf;" id="kvg:058eb-s2" kvg:type="㇑a" d="M52.25,17.25C53.31,18.31,54,19.88,54,21.5c0,1.03,0.25,58.62,0.25,66"/>
	<path style="stroke: #73bf09;" id="kvg:058eb-s3" kvg:type="㇐" d="M21.75,89.45c2.73,0.83,5.82,0.54,8.62,0.42c12.73-0.57,33.94-2.04,45.88-2.17c2.97-0.03,5.83,0.21,8.75,0.74"/>
</g>
</g>
<g id="kvg:StrokeNumbers_058eb" style="font-size:8;fill:#808080" transform="scale(3.0,3.0)">
	<text style="fill: #bf0909;" transform="matrix(1 0 0 1 6.50 55.63)">1</text>
	<text style="fill: #093ebf;" transform="matrix(1 0 0 1 40.50 18.50)">2</text>
	<text style="fill: #73bf09;" transform="matrix(1 0 0 1 13.50 89.50)">3</text>
</g>
</svg>
