<?xml version="1.0" encoding="UTF-8"?>

<!DOCTYPE svg PUBLIC "-//W3C//DTD SVG 1.0//EN" "http://www.w3.org/TR/2001/REC-SVG-20010904/DTD/svg10.dtd" [
<!ATTLIST g
xmlns:kvg CDATA #FIXED "http://kanjivg.tagaini.net"
kvg:element CDATA #IMPLIED
kvg:variant CDATA #IMPLIED
kvg:partial CDATA #IMPLIED
kvg:original CDATA #IMPLIED
kvg:part CDATA #IMPLIED
kvg:number CDATA #IMPLIED
kvg:tradForm CDATA #IMPLIED
kvg:radicalForm CDATA #IMPLIED
kvg:position CDATA #IMPLIED
kvg:radical CDATA #IMPLIED
kvg:phon CDATA #IMPLIED >
<!ATTLIST path
xmlns:kvg CDATA #FIXED "http://kanjivg.tagaini.net"
kvg:type CDATA #IMPLIED >
]>
<svg xmlns="http://www.w3.org/2000/svg" width="327" height = "327" viewBox="0 0 327 327">
<g id="kvg:StrokePaths_0590a" style="fill:none;stroke:#000000;stroke-width:3;stroke-linecap:round;stroke-linejoin:round;" transform="scale(3.0,3.0)">
<g id="kvg:0590a" kvg:element="夊" kvg:radical="tradit">
	<g id="kvg:0590a-g1" kvg:element="夂" kvg:variant="true" kvg:radical="nelson">
		<path style="stroke: #bf0909;" id="kvg:0590a-s1" kvg:type="㇒" d="M52.54,13.75c0.09,1.14,0.19,2.93-0.18,4.57c-2.2,9.63-14.33,31.25-31.61,44.18"/>
		<path style="stroke: #093ebf;" id="kvg:0590a-s2" kvg:type="㇇" d="M48.14,35.78c0.46,0.05,2.9,0.45,4.19,0.32c5.79-0.58,16.07-2.7,22.14-4.16c4.17-1,5.35,1.14,4.29,3.86C72.92,50.68,43.51,87.09,17.5,94.75"/>
		<path style="stroke: #73bf09;" id="kvg:0590a-s3" kvg:type="㇏" d="M24.25,30.5c2.25,0,4.41,1.74,4.99,2.73C42,55,66.5,79.75,83.33,89.86c3.99,2.4,6.61,4.28,10.17,5.14"/>
	</g>
</g>
</g>
<g id="kvg:StrokeNumbers_0590a" style="font-size:8;fill:#808080" transform="scale(3.0,3.0)">
	<text style="fill: #bf0909;" transform="matrix(1 0 0 1 45.50 13.63)">1</text>
	<text style="fill: #093ebf;" transform="matrix(1 0 0 1 53.50 32.50)">2</text>
	<text style="fill: #73bf09;" transform="matrix(1 0 0 1 17.50 31.50)">3</text>
</g>
</svg>
