<?xml version="1.0" encoding="UTF-8"?>

<!DOCTYPE svg PUBLIC "-//W3C//DTD SVG 1.0//EN" "http://www.w3.org/TR/2001/REC-SVG-20010904/DTD/svg10.dtd" [
<!ATTLIST g
xmlns:kvg CDATA #FIXED "http://kanjivg.tagaini.net"
kvg:element CDATA #IMPLIED
kvg:variant CDATA #IMPLIED
kvg:partial CDATA #IMPLIED
kvg:original CDATA #IMPLIED
kvg:part CDATA #IMPLIED
kvg:number CDATA #IMPLIED
kvg:tradForm CDATA #IMPLIED
kvg:radicalForm CDATA #IMPLIED
kvg:position CDATA #IMPLIED
kvg:radical CDATA #IMPLIED
kvg:phon CDATA #IMPLIED >
<!ATTLIST path
xmlns:kvg CDATA #FIXED "http://kanjivg.tagaini.net"
kvg:type CDATA #IMPLIED >
]>
<svg xmlns="http://www.w3.org/2000/svg" width="327" height = "327" viewBox="0 0 327 327">
<g id="kvg:StrokePaths_05927" style="fill:none;stroke:#000000;stroke-width:3;stroke-linecap:round;stroke-linejoin:round;" transform="scale(3.0,3.0)">
<g id="kvg:05927" kvg:element="大" kvg:radical="general">
	<path style="stroke: #bf0909;" id="kvg:05927-s1" kvg:type="㇐" d="M19.38,48.25c1.49,0.51,5.03,0.89,7.6,0.49C41.12,46.5,63,43,77.19,42.44c2.7-0.11,4.87-0.06,7.31,0.33"/>
	<path style="stroke: #093ebf;" id="kvg:05927-s2" kvg:type="㇒" d="M49.5,18c0.88,2.12,1.03,4.16,0.99,6.32C50,57,37.75,81.12,18,91.75"/>
	<path style="stroke: #73bf09;" id="kvg:05927-s3" kvg:type="㇏" d="M49.5,46c9,10.5,28.5,36.25,37.49,43.28c3.06,2.39,5.62,3.75,7.01,3.97"/>
</g>
</g>
<g id="kvg:StrokeNumbers_05927" style="font-size:8;fill:#808080" transform="scale(3.0,3.0)">
	<text style="fill: #bf0909;" transform="matrix(1 0 0 1 12.75 49.63)">1</text>
	<text style="fill: #093ebf;" transform="matrix(1 0 0 1 40.50 18.50)">2</text>
	<text style="fill: #73bf09;" transform="matrix(1 0 0 1 61.50 55.63)">3</text>
</g>
</svg>
