<?xml version="1.0" encoding="UTF-8"?>

<!DOCTYPE svg PUBLIC "-//W3C//DTD SVG 1.0//EN" "http://www.w3.org/TR/2001/REC-SVG-20010904/DTD/svg10.dtd" [
<!ATTLIST g
xmlns:kvg CDATA #FIXED "http://kanjivg.tagaini.net"
kvg:element CDATA #IMPLIED
kvg:variant CDATA #IMPLIED
kvg:partial CDATA #IMPLIED
kvg:original CDATA #IMPLIED
kvg:part CDATA #IMPLIED
kvg:number CDATA #IMPLIED
kvg:tradForm CDATA #IMPLIED
kvg:radicalForm CDATA #IMPLIED
kvg:position CDATA #IMPLIED
kvg:radical CDATA #IMPLIED
kvg:phon CDATA #IMPLIED >
<!ATTLIST path
xmlns:kvg CDATA #FIXED "http://kanjivg.tagaini.net"
kvg:type CDATA #IMPLIED >
]>
<svg xmlns="http://www.w3.org/2000/svg" width="327" height = "327" viewBox="0 0 327 327">
<g id="kvg:StrokePaths_0592d" style="fill:none;stroke:#000000;stroke-width:3;stroke-linecap:round;stroke-linejoin:round;" transform="scale(3.0,3.0)">
<g id="kvg:0592d" kvg:element="夭">
	<g id="kvg:0592d-g1" kvg:element="丿" kvg:radical="nelson">
		<path style="stroke: #bf0909;" id="kvg:0592d-s1" kvg:type="㇒" d="M72.18,14.39c0.13,0.4,0.24,1-0.25,1.59C67.75,21,51,28.5,27.31,31.22"/>
	</g>
	<g id="kvg:0592d-g2" kvg:element="大" kvg:radical="tradit">
		<path style="stroke: #093ebf;" id="kvg:0592d-s2" kvg:type="㇐" d="M16.38,52.11c0.97,0.44,3.45,0.67,4.51,0.61c12.36-0.72,48.36-5.47,63.86-5.64C86.1,47.07,88,47.25,91,48"/>
		<path style="stroke: #73bf09;" id="kvg:0592d-s3" kvg:type="㇒" d="M52.14,28.5c0.57,0.94,0.87,2.02,0.85,4.04c-0.28,35-14.06,53.46-36.74,64.21"/>
		<path style="stroke: #bf09a8;" id="kvg:0592d-s4" kvg:type="㇏" d="M54,52c8.74,9.86,27.67,33.11,36.4,39.71c2.97,2.24,4,2.58,5.35,2.79"/>
	</g>
</g>
</g>
<g id="kvg:StrokeNumbers_0592d" style="font-size:8;fill:#808080" transform="scale(3.0,3.0)">
	<text style="fill: #bf0909;" transform="matrix(1 0 0 1 65.25 14.30)">1</text>
	<text style="fill: #093ebf;" transform="matrix(1 0 0 1 8.58 53.89)">2</text>
	<text style="fill: #73bf09;" transform="matrix(1 0 0 1 45.25 37.48)">3</text>
	<text style="fill: #bf09a8;" transform="matrix(1 0 0 1 61.92 57.74)">4</text>
</g>
</svg>
