<?xml version="1.0" encoding="UTF-8"?>

<!DOCTYPE svg PUBLIC "-//W3C//DTD SVG 1.0//EN" "http://www.w3.org/TR/2001/REC-SVG-20010904/DTD/svg10.dtd" [
<!ATTLIST g
xmlns:kvg CDATA #FIXED "http://kanjivg.tagaini.net"
kvg:element CDATA #IMPLIED
kvg:variant CDATA #IMPLIED
kvg:partial CDATA #IMPLIED
kvg:original CDATA #IMPLIED
kvg:part CDATA #IMPLIED
kvg:number CDATA #IMPLIED
kvg:tradForm CDATA #IMPLIED
kvg:radicalForm CDATA #IMPLIED
kvg:position CDATA #IMPLIED
kvg:radical CDATA #IMPLIED
kvg:phon CDATA #IMPLIED >
<!ATTLIST path
xmlns:kvg CDATA #FIXED "http://kanjivg.tagaini.net"
kvg:type CDATA #IMPLIED >
]>
<svg xmlns="http://www.w3.org/2000/svg" width="327" height = "327" viewBox="0 0 327 327">
<g id="kvg:StrokePaths_05973" style="fill:none;stroke:#000000;stroke-width:3;stroke-linecap:round;stroke-linejoin:round;" transform="scale(3.0,3.0)">
<g id="kvg:05973" kvg:element="女" kvg:radical="general">
	<path style="stroke: #bf0909;" id="kvg:05973-s1" kvg:type="㇛" d="M53.21,18.37c0.54,2.13,0.26,3.41-0.25,5.25C50.38,33,42.62,52.75,35.75,64c-1.39,2.27-1,3.5,1,3.5c11.63,0,28.46,7.48,38.83,16.41c2.56,2.21,4.68,4.51,6.17,6.84"/>
	<path style="stroke: #093ebf;" id="kvg:05973-s2" kvg:type="㇒" d="M69.62,42.18c0.5,1.7,0.63,3.57-0.01,5.93C65.93,61.8,54.61,81.6,27,91.75"/>
	<path style="stroke: #73bf09;" id="kvg:05973-s3" kvg:type="㇐" d="M13.88,50.43c3.48,1.39,7.26,0.85,10.88,0.53c19.52-1.7,42.04-4.08,60.61-4.63c3.66-0.11,7.21-0.1,10.62,1.42"/>
</g>
</g>
<g id="kvg:StrokeNumbers_05973" style="font-size:8;fill:#808080" transform="scale(3.0,3.0)">
	<text style="fill: #bf0909;" transform="matrix(1 0 0 1 45.00 17.50)">1</text>
	<text style="fill: #093ebf;" transform="matrix(1 0 0 1 68.50 37.50)">2</text>
	<text style="fill: #73bf09;" transform="matrix(1 0 0 1 5.50 51.50)">3</text>
</g>
</svg>
