<?xml version="1.0" encoding="UTF-8"?>

<!DOCTYPE svg PUBLIC "-//W3C//DTD SVG 1.0//EN" "http://www.w3.org/TR/2001/REC-SVG-20010904/DTD/svg10.dtd" [
<!ATTLIST g
xmlns:kvg CDATA #FIXED "http://kanjivg.tagaini.net"
kvg:element CDATA #IMPLIED
kvg:variant CDATA #IMPLIED
kvg:partial CDATA #IMPLIED
kvg:original CDATA #IMPLIED
kvg:part CDATA #IMPLIED
kvg:number CDATA #IMPLIED
kvg:tradForm CDATA #IMPLIED
kvg:radicalForm CDATA #IMPLIED
kvg:position CDATA #IMPLIED
kvg:radical CDATA #IMPLIED
kvg:phon CDATA #IMPLIED >
<!ATTLIST path
xmlns:kvg CDATA #FIXED "http://kanjivg.tagaini.net"
kvg:type CDATA #IMPLIED >
]>
<svg xmlns="http://www.w3.org/2000/svg" width="327" height = "327" viewBox="0 0 327 327">
<g id="kvg:StrokePaths_05bf8" style="fill:none;stroke:#000000;stroke-width:3;stroke-linecap:round;stroke-linejoin:round;" transform="scale(3.0,3.0)">
<g id="kvg:05bf8" kvg:element="寸" kvg:radical="general">
	<path style="stroke: #bf0909;" id="kvg:05bf8-s1" kvg:type="㇐" d="M11.38,40.67c3.62,1.08,8.48,0.79,11.88,0.4c21.24-2.45,43.24-4.7,63.24-6.1c3.86-0.27,8.38-0.1,11.63,0.59"/>
	<path style="stroke: #093ebf;" id="kvg:05bf8-s2" kvg:type="㇚" d="M66.27,11.83c1.08,1.08,1.76,2.42,1.76,4.52c0,20.4-0.01,69.16-0.01,74.12c0,13.28-7.52,1.78-9.71,0.25"/>
	<path style="stroke: #73bf09;" id="kvg:05bf8-s3" kvg:type="㇔" d="M40.38,51.62c3.65,2.87,9.42,11.78,10.33,16.24"/>
</g>
</g>
<g id="kvg:StrokeNumbers_05bf8" style="font-size:8;fill:#808080" transform="scale(3.0,3.0)">
	<text style="fill: #bf0909;" transform="matrix(1 0 0 1 3.75 42.13)">1</text>
	<text style="fill: #093ebf;" transform="matrix(1 0 0 1 54.75 15.13)">2</text>
	<text style="fill: #73bf09;" transform="matrix(1 0 0 1 32.25 55.63)">3</text>
</g>
</svg>
