<?xml version="1.0" encoding="UTF-8"?>

<!DOCTYPE svg PUBLIC "-//W3C//DTD SVG 1.0//EN" "http://www.w3.org/TR/2001/REC-SVG-20010904/DTD/svg10.dtd" [
<!ATTLIST g
xmlns:kvg CDATA #FIXED "http://kanjivg.tagaini.net"
kvg:element CDATA #IMPLIED
kvg:variant CDATA #IMPLIED
kvg:partial CDATA #IMPLIED
kvg:original CDATA #IMPLIED
kvg:part CDATA #IMPLIED
kvg:number CDATA #IMPLIED
kvg:tradForm CDATA #IMPLIED
kvg:radicalForm CDATA #IMPLIED
kvg:position CDATA #IMPLIED
kvg:radical CDATA #IMPLIED
kvg:phon CDATA #IMPLIED >
<!ATTLIST path
xmlns:kvg CDATA #FIXED "http://kanjivg.tagaini.net"
kvg:type CDATA #IMPLIED >
]>
<svg xmlns="http://www.w3.org/2000/svg" width="327" height = "327" viewBox="0 0 327 327">
<g id="kvg:StrokePaths_05c0f" style="fill:none;stroke:#000000;stroke-width:3;stroke-linecap:round;stroke-linejoin:round;" transform="scale(3.0,3.0)">
<g id="kvg:05c0f" kvg:element="小" kvg:radical="general">
	<path style="stroke: #bf0909;" id="kvg:05c0f-s1" kvg:type="㇚" d="M54.71,18.37c1.4,1.4,2.26,3.13,2.26,5.77c0,14.56-0.26,54.91-0.26,59.87c0,11.25-7.21,1.5-8.71,0.25"/>
	<path style="stroke: #093ebf;" id="kvg:05c0f-s2" kvg:type="㇒" d="M31.95,47.68c0.17,0.82,0.1,1.72-0.34,2.9C29.5,56.38,24.38,66.25,16.75,73"/>
	<path style="stroke: #73bf09;" id="kvg:05c0f-s3" kvg:type="㇔" d="M80.96,47.12C86.62,52,95.25,64.62,97,72"/>
</g>
</g>
<g id="kvg:StrokeNumbers_05c0f" style="font-size:8;fill:#808080" transform="scale(3.0,3.0)">
	<text style="fill: #bf0909;" transform="matrix(1 0 0 1 45.50 16.13)">1</text>
	<text style="fill: #093ebf;" transform="matrix(1 0 0 1 31.00 43.28)">2</text>
	<text style="fill: #73bf09;" transform="matrix(1 0 0 1 72.50 43.28)">3</text>
</g>
</svg>
