<?xml version="1.0" encoding="UTF-8"?>

<!DOCTYPE svg PUBLIC "-//W3C//DTD SVG 1.0//EN" "http://www.w3.org/TR/2001/REC-SVG-20010904/DTD/svg10.dtd" [
<!ATTLIST g
xmlns:kvg CDATA #FIXED "http://kanjivg.tagaini.net"
kvg:element CDATA #IMPLIED
kvg:variant CDATA #IMPLIED
kvg:partial CDATA #IMPLIED
kvg:original CDATA #IMPLIED
kvg:part CDATA #IMPLIED
kvg:number CDATA #IMPLIED
kvg:tradForm CDATA #IMPLIED
kvg:radicalForm CDATA #IMPLIED
kvg:position CDATA #IMPLIED
kvg:radical CDATA #IMPLIED
kvg:phon CDATA #IMPLIED >
<!ATTLIST path
xmlns:kvg CDATA #FIXED "http://kanjivg.tagaini.net"
kvg:type CDATA #IMPLIED >
]>
<svg xmlns="http://www.w3.org/2000/svg" width="327" height = "327" viewBox="0 0 327 327">
<g id="kvg:StrokePaths_05c22" style="fill:none;stroke:#000000;stroke-width:3;stroke-linecap:round;stroke-linejoin:round;" transform="scale(3.0,3.0)">
<g id="kvg:05c22" kvg:element="尢" kvg:radical="general">
	<path style="stroke: #bf0909;" id="kvg:05c22-s1" kvg:type="㇐" d="M20.75,37c1.37,0.49,3.88,0.63,5.25,0.49c9.75-0.98,43-5.73,57.71-5.71c2.28,0,3.65,0.23,4.79,0.48"/>
	<g id="kvg:05c22-g1" kvg:element="儿" kvg:original="八">
		<g id="kvg:05c22-g2" kvg:element="丿">
			<path style="stroke: #093ebf;" id="kvg:05c22-s2" kvg:type="㇒" d="M54.2,14.5c0.12,2.11,1.26,2.04,0.77,4.91C50.25,47,42,79.75,14.67,96.67"/>
		</g>
		<path style="stroke: #73bf09;" id="kvg:05c22-s3" kvg:type="㇟" d="M54.48,46.37c0.74,1.57,1.33,3.42,1.38,5.83c0.2,10.79-0.53,21.77-0.53,29.11c0,17.14,8.91,15.2,17.67,15.2c9.25,0,15.34-2.21,16.64-3.46c2.75-2.64,2-3.96,2.25-8.57"/>
	</g>
</g>
</g>
<g id="kvg:StrokeNumbers_05c22" style="font-size:8;fill:#808080" transform="scale(3.0,3.0)">
	<text style="fill: #bf0909;" transform="matrix(1 0 0 1 14.50 37.50)">1</text>
	<text style="fill: #093ebf;" transform="matrix(1 0 0 1 44.25 13.50)">2</text>
	<text style="fill: #73bf09;" transform="matrix(1 0 0 1 59.50 50.48)">3</text>
</g>
</svg>
