<?xml version="1.0" encoding="UTF-8"?>

<!DOCTYPE svg PUBLIC "-//W3C//DTD SVG 1.0//EN" "http://www.w3.org/TR/2001/REC-SVG-20010904/DTD/svg10.dtd" [
<!ATTLIST g
xmlns:kvg CDATA #FIXED "http://kanjivg.tagaini.net"
kvg:element CDATA #IMPLIED
kvg:variant CDATA #IMPLIED
kvg:partial CDATA #IMPLIED
kvg:original CDATA #IMPLIED
kvg:part CDATA #IMPLIED
kvg:number CDATA #IMPLIED
kvg:tradForm CDATA #IMPLIED
kvg:radicalForm CDATA #IMPLIED
kvg:position CDATA #IMPLIED
kvg:radical CDATA #IMPLIED
kvg:phon CDATA #IMPLIED >
<!ATTLIST path
xmlns:kvg CDATA #FIXED "http://kanjivg.tagaini.net"
kvg:type CDATA #IMPLIED >
]>
<svg xmlns="http://www.w3.org/2000/svg" width="327" height = "327" viewBox="0 0 327 327">
<g id="kvg:StrokePaths_05c71" style="fill:none;stroke:#000000;stroke-width:3;stroke-linecap:round;stroke-linejoin:round;" transform="scale(3.0,3.0)">
<g id="kvg:05c71" kvg:element="山" kvg:radical="general">
	<path style="stroke: #bf0909;" id="kvg:05c71-s1" kvg:type="㇑a" d="M52.49,15.5c1.38,1.38,2.26,3.5,2.26,5.75c0,0.75-0.22,58.3-0.25,59.25"/>
	<path style="stroke: #093ebf;" id="kvg:05c71-s2" kvg:type="㇄a" d="M21.49,54.5c0.88,0.88,1.39,2.25,1.26,3.75c-0.58,6.99-1,16-2.5,23c-0.7,3.26,0.11,4,2,3.75c17-2.25,47.12-5.12,65.5-6"/>
	<path style="stroke: #73bf09;" id="kvg:05c71-s3" kvg:type="㇑" d="M89.24,49c0.94,0.94,1.64,2.38,1.51,4.25c-0.25,3.68-1.83,20.3-2.55,28.77c-0.22,2.64-0.39,4.51-0.45,4.98"/>
</g>
</g>
<g id="kvg:StrokeNumbers_05c71" style="font-size:8;fill:#808080" transform="scale(3.0,3.0)">
	<text style="fill: #bf0909;" transform="matrix(1 0 0 1 45.75 10.63)">1</text>
	<text style="fill: #093ebf;" transform="matrix(1 0 0 1 12.75 52.63)">2</text>
	<text style="fill: #73bf09;" transform="matrix(1 0 0 1 83.25 43.63)">3</text>
</g>
</svg>
