<?xml version="1.0" encoding="UTF-8"?>

<!DOCTYPE svg PUBLIC "-//W3C//DTD SVG 1.0//EN" "http://www.w3.org/TR/2001/REC-SVG-20010904/DTD/svg10.dtd" [
<!ATTLIST g
xmlns:kvg CDATA #FIXED "http://kanjivg.tagaini.net"
kvg:element CDATA #IMPLIED
kvg:variant CDATA #IMPLIED
kvg:partial CDATA #IMPLIED
kvg:original CDATA #IMPLIED
kvg:part CDATA #IMPLIED
kvg:number CDATA #IMPLIED
kvg:tradForm CDATA #IMPLIED
kvg:radicalForm CDATA #IMPLIED
kvg:position CDATA #IMPLIED
kvg:radical CDATA #IMPLIED
kvg:phon CDATA #IMPLIED >
<!ATTLIST path
xmlns:kvg CDATA #FIXED "http://kanjivg.tagaini.net"
kvg:type CDATA #IMPLIED >
]>
<svg xmlns="http://www.w3.org/2000/svg" width="327" height = "327" viewBox="0 0 327 327">
<g id="kvg:StrokePaths_05e7a" style="fill:none;stroke:#000000;stroke-width:3;stroke-linecap:round;stroke-linejoin:round;" transform="scale(3.0,3.0)">
<g id="kvg:05e7a" kvg:element="幺" kvg:radical="general">
	<path style="stroke: #bf0909;" id="kvg:05e7a-s1" kvg:type="㇜" d="M52.38,14.87c0.6,1.81,0.67,3.04-0.3,5.12C48,28.75,39.75,38.5,33.18,44.49c-1.11,1.02-0.69,3.18,0.5,3.52c6.33,1.81,13.57,2.74,22.18,6.13"/>
	<path style="stroke: #093ebf;" id="kvg:05e7a-s2" kvg:type="㇜" d="M74.98,27.31c0.6,0.9,0.21,4.26-0.5,5.32c-8.73,13.11-32.83,40.03-47.29,54.79c-1.94,1.98-1.23,4.39,1.21,3.91c13.11-2.59,36.25-6.83,49.21-9.24"/>
	<path style="stroke: #73bf09;" id="kvg:05e7a-s3" kvg:type="㇔" d="M68.39,67.96c5.73,4.65,14.81,19.13,16.24,26.37"/>
</g>
</g>
<g id="kvg:StrokeNumbers_05e7a" style="font-size:8;fill:#808080" transform="scale(3.0,3.0)">
	<text style="fill: #bf0909;" transform="matrix(1 0 0 1 45.50 14.50)">1</text>
	<text style="fill: #093ebf;" transform="matrix(1 0 0 1 66.50 26.50)">2</text>
	<text style="fill: #73bf09;" transform="matrix(1 0 0 1 65.50 64.50)">3</text>
</g>
</svg>
