<?xml version="1.0" encoding="UTF-8"?>

<!DOCTYPE svg PUBLIC "-//W3C//DTD SVG 1.0//EN" "http://www.w3.org/TR/2001/REC-SVG-20010904/DTD/svg10.dtd" [
<!ATTLIST g
xmlns:kvg CDATA #FIXED "http://kanjivg.tagaini.net"
kvg:element CDATA #IMPLIED
kvg:variant CDATA #IMPLIED
kvg:partial CDATA #IMPLIED
kvg:original CDATA #IMPLIED
kvg:part CDATA #IMPLIED
kvg:number CDATA #IMPLIED
kvg:tradForm CDATA #IMPLIED
kvg:radicalForm CDATA #IMPLIED
kvg:position CDATA #IMPLIED
kvg:radical CDATA #IMPLIED
kvg:phon CDATA #IMPLIED >
<!ATTLIST path
xmlns:kvg CDATA #FIXED "http://kanjivg.tagaini.net"
kvg:type CDATA #IMPLIED >
]>
<svg xmlns="http://www.w3.org/2000/svg" width="327" height = "327" viewBox="0 0 327 327">
<g id="kvg:StrokePaths_05f73" style="fill:none;stroke:#000000;stroke-width:3;stroke-linecap:round;stroke-linejoin:round;" transform="scale(3.0,3.0)">
<g id="kvg:05f73" kvg:element="彳" kvg:radical="general">
	<path style="stroke: #bf0909;" id="kvg:05f73-s1" kvg:type="㇒" d="M64,13c0.08,0.63,0.41,1.76-0.17,2.53C59.75,21,49,30.5,34,39.75"/>
	<g id="kvg:05f73-g1" kvg:element="亻" kvg:variant="true" kvg:original="人">
		<path style="stroke: #093ebf;" id="kvg:05f73-s2" kvg:type="㇒" d="M69,31.75c0.11,0.91,0.54,2.53-0.22,3.64C63.4,43.26,49.25,56.94,29.5,70.25"/>
		<path style="stroke: #73bf09;" id="kvg:05f73-s3" kvg:type="㇑" d="M53.85,54.5c0.48,0.25,0.77,1.15,0.86,1.66c0.1,0.51,0,39.15-0.1,42.34"/>
	</g>
</g>
</g>
<g id="kvg:StrokeNumbers_05f73" style="font-size:8;fill:#808080" transform="scale(3.0,3.0)">
	<text style="fill: #bf0909;" transform="matrix(1 0 0 1 56.25 12.63)">1</text>
	<text style="fill: #093ebf;" transform="matrix(1 0 0 1 60.25 31.55)">2</text>
	<text style="fill: #73bf09;" transform="matrix(1 0 0 1 48.25 67.50)">3</text>
</g>
</svg>
