<?xml version="1.0" encoding="UTF-8"?>

<!DOCTYPE svg PUBLIC "-//W3C//DTD SVG 1.0//EN" "http://www.w3.org/TR/2001/REC-SVG-20010904/DTD/svg10.dtd" [
<!ATTLIST g
xmlns:kvg CDATA #FIXED "http://kanjivg.tagaini.net"
kvg:element CDATA #IMPLIED
kvg:variant CDATA #IMPLIED
kvg:partial CDATA #IMPLIED
kvg:original CDATA #IMPLIED
kvg:part CDATA #IMPLIED
kvg:number CDATA #IMPLIED
kvg:tradForm CDATA #IMPLIED
kvg:radicalForm CDATA #IMPLIED
kvg:position CDATA #IMPLIED
kvg:radical CDATA #IMPLIED
kvg:phon CDATA #IMPLIED >
<!ATTLIST path
xmlns:kvg CDATA #FIXED "http://kanjivg.tagaini.net"
kvg:type CDATA #IMPLIED >
]>
<svg xmlns="http://www.w3.org/2000/svg" width="327" height = "327" viewBox="0 0 327 327">
<g id="kvg:StrokePaths_05ffd" style="fill:none;stroke:#000000;stroke-width:3;stroke-linecap:round;stroke-linejoin:round;" transform="scale(3.0,3.0)">
<g id="kvg:05ffd" kvg:element="忽">
	<g id="kvg:05ffd-g1" kvg:element="勿" kvg:position="top">
		<g id="kvg:05ffd-g2" kvg:element="勹">
			<path style="stroke: #bf0909;" id="kvg:05ffd-s1" kvg:type="㇒" d="M40.92,13.5c0.11,0.99-0.28,1.94-0.65,2.85c-2.77,5.02-7.82,12.04-14.67,18.47"/>
			<path style="stroke: #093ebf;" id="kvg:05ffd-s2" kvg:type="㇆" d="M39.45,23.77c2.55,0.73,4.11,0.59,6.42,0.32c7.19-1.02,22.76-3.34,30.51-4.27c4.43-0.53,6.37,0.85,5.22,5.25c-1.72,6.6-5.73,20.92-13.02,29.36c-5.03,5.82-7.37,6.03-10.91,3.55"/>
		</g>
		<path style="stroke: #73bf09;" id="kvg:05ffd-s3" kvg:type="㇒" d="M48.84,27.03c0,1.1-0.31,2.05-0.85,2.95c-3.12,5.27-7.24,9.9-16.11,15.46"/>
		<path style="stroke: #bf09a8;" id="kvg:05ffd-s4" kvg:type="㇒" d="M66.04,25.02c0.09,0.79,0.07,1.85-0.43,2.94C62.25,35.25,51.62,49,34.2,58.18"/>
	</g>
	<g id="kvg:05ffd-g3" kvg:element="心" kvg:position="bottom" kvg:radical="general">
		<path style="stroke: #09bfa0;" id="kvg:05ffd-s5" kvg:type="㇔" d="M21.89,78.32c0.39,2.39-4.17,12.69-7.31,16.67"/>
		<path style="stroke: #bf6b09;" id="kvg:05ffd-s6" kvg:type="㇃" d="M33.58,72.75c6.92,14,18.68,24.22,43.14,22.93c13.03-0.68,13.9-3.56,3.38-10.3"/>
		<path style="stroke: #3609bf;" id="kvg:05ffd-s7" kvg:type="㇔a" d="M53.16,71.25c2.17,5.25,5.57,10.75,7.88,2.71"/>
		<path style="stroke: #11bf09;" id="kvg:05ffd-s8" kvg:type="㇔" d="M83.13,67.23c4.74,2.89,7.87,5.52,11.35,11.86"/>
	</g>
</g>
</g>
<g id="kvg:StrokeNumbers_05ffd" style="font-size:8;fill:#808080" transform="scale(3.0,3.0)">
	<text style="fill: #bf0909;" transform="matrix(1 0 0 1 32.50 12.50)">1</text>
	<text style="fill: #093ebf;" transform="matrix(1 0 0 1 46.50 20.50)">2</text>
	<text style="fill: #73bf09;" transform="matrix(1 0 0 1 38.50 33.48)">3</text>
	<text style="fill: #bf09a8;" transform="matrix(1 0 0 1 55.50 32.50)">4</text>
	<text style="fill: #09bfa0;" transform="matrix(1 0 0 1 16.50 76.33)">5</text>
	<text style="fill: #bf6b09;" transform="matrix(1 0 0 1 27.50 73.50)">6</text>
	<text style="fill: #3609bf;" transform="matrix(1 0 0 1 46.25 71.50)">7</text>
	<text style="fill: #11bf09;" transform="matrix(1 0 0 1 76.25 69.50)">8</text>
</g>
</svg>
