<?xml version="1.0" encoding="UTF-8"?>

<!DOCTYPE svg PUBLIC "-//W3C//DTD SVG 1.0//EN" "http://www.w3.org/TR/2001/REC-SVG-20010904/DTD/svg10.dtd" [
<!ATTLIST g
xmlns:kvg CDATA #FIXED "http://kanjivg.tagaini.net"
kvg:element CDATA #IMPLIED
kvg:variant CDATA #IMPLIED
kvg:partial CDATA #IMPLIED
kvg:original CDATA #IMPLIED
kvg:part CDATA #IMPLIED
kvg:number CDATA #IMPLIED
kvg:tradForm CDATA #IMPLIED
kvg:radicalForm CDATA #IMPLIED
kvg:position CDATA #IMPLIED
kvg:radical CDATA #IMPLIED
kvg:phon CDATA #IMPLIED >
<!ATTLIST path
xmlns:kvg CDATA #FIXED "http://kanjivg.tagaini.net"
kvg:type CDATA #IMPLIED >
]>
<svg xmlns="http://www.w3.org/2000/svg" width="327" height = "327" viewBox="0 0 327 327">
<g id="kvg:StrokePaths_0624d" style="fill:none;stroke:#000000;stroke-width:3;stroke-linecap:round;stroke-linejoin:round;" transform="scale(3.0,3.0)">
<g id="kvg:0624d" kvg:element="才">
	<g id="kvg:0624d-g1" kvg:element="扌" kvg:variant="true" kvg:original="手" kvg:radical="tradit">
		<path style="stroke: #bf0909;" id="kvg:0624d-s1" kvg:type="㇐" d="M 18.62,38.5 c 2.62,0.62 4.54,0.53 7.82,0.25 C 41.25,37.5 67.62,35 84.75,34 c 3.28,-0.19 5.86,0 8,0.5"/>
		<g id="kvg:0624d-g2" kvg:element="亅" kvg:radical="nelson">
			<path style="stroke: #093ebf;" id="kvg:0624d-s2" kvg:type="㇚" d="M 60.77,13.58 c 1.39,1.39 2.26,2.99 2.26,6.02 0,15.4 -0.01,66.41 -0.01,71.37 0,8.78 -7.21,0.5 -8.71,-0.75"/>
		</g>
		<path style="stroke: #73bf09;" id="kvg:0624d-s3" kvg:type="㇒" d="M 73.043742,46.367587 C 62.856133,57.87424 32.711367,80.494361 23.641472,85.467096"/>
	</g>
</g>
</g>
<g id="kvg:StrokeNumbers_0624d" style="font-size:8;fill:#808080" transform="scale(3.0,3.0)">
	<text style="fill: #bf0909;" transform="matrix(1 0 0 1 11.50 38.50)">1</text>
	<text style="fill: #093ebf;" transform="matrix(1 0 0 1 53.73 16.07)">2</text>
	<text style="fill: #73bf09;" transform="matrix(1 0 0 1 75.49 46.06)">3</text>
</g>
</svg>
