<?xml version="1.0" encoding="UTF-8"?>

<!DOCTYPE svg PUBLIC "-//W3C//DTD SVG 1.0//EN" "http://www.w3.org/TR/2001/REC-SVG-20010904/DTD/svg10.dtd" [
<!ATTLIST g
xmlns:kvg CDATA #FIXED "http://kanjivg.tagaini.net"
kvg:element CDATA #IMPLIED
kvg:variant CDATA #IMPLIED
kvg:partial CDATA #IMPLIED
kvg:original CDATA #IMPLIED
kvg:part CDATA #IMPLIED
kvg:number CDATA #IMPLIED
kvg:tradForm CDATA #IMPLIED
kvg:radicalForm CDATA #IMPLIED
kvg:position CDATA #IMPLIED
kvg:radical CDATA #IMPLIED
kvg:phon CDATA #IMPLIED >
<!ATTLIST path
xmlns:kvg CDATA #FIXED "http://kanjivg.tagaini.net"
kvg:type CDATA #IMPLIED >
]>
<svg xmlns="http://www.w3.org/2000/svg" width="327" height = "327" viewBox="0 0 327 327">
<g id="kvg:StrokePaths_0625b" style="fill:none;stroke:#000000;stroke-width:3;stroke-linecap:round;stroke-linejoin:round;" transform="scale(3.0,3.0)">
<g id="kvg:0625b" kvg:element="扛">
	<g id="kvg:0625b-g1" kvg:element="扌" kvg:variant="true" kvg:original="手" kvg:position="left" kvg:radical="general">
		<path style="stroke: #bf0909;" id="kvg:0625b-s1" kvg:type="㇐" d="M13.5,35.02c1.5,0.73,3.01,1.13,5.68,0.83c7.57-0.84,16.03-1.78,26.98-3.31"/>
		<path style="stroke: #093ebf;" id="kvg:0625b-s2" kvg:type="㇚" d="M31.63,11c0.52,0.98,1.79,2.66,1.88,5.89c0.43,15.55,0.26,67.23,0.26,72.52c0,15.22-6.76,3.77-8.29,2.14"/>
		<path style="stroke: #73bf09;" id="kvg:0625b-s3" kvg:type="㇀" d="M12,65.72c1.5,1.03,3.75,2.03,6.25,0.53c2.04-1.23,18.46-9.44,27.5-14.58"/>
	</g>
	<g id="kvg:0625b-g2" kvg:element="工" kvg:position="right">
		<path style="stroke: #bf09a8;" id="kvg:0625b-s4" kvg:type="㇐" d="M50.5,26.97c0.95,0.52,4.03,0.53,5,0.53c6.25,0,28-2.75,35.5-3.29c1.46-0.11,2.79,0.1,4,0.54"/>
		<path style="stroke: #09bfa0;" id="kvg:0625b-s5" kvg:type="㇑a" d="M70.08,28.75c0.85,2.83,0.85,4.53,0.85,6.8c0,15.86-0.02,23.51-0.02,50.7"/>
		<path style="stroke: #bf6b09;" id="kvg:0625b-s6" kvg:type="㇐" d="M43.25,87.59c0.92,0.38,4.2,0.77,5.75,0.6c16.75-1.84,29-2.74,44.25-3.3c2.5-0.09,5.5,0.63,6.75,1.22"/>
	</g>
</g>
</g>
<g id="kvg:StrokeNumbers_0625b" style="font-size:8;fill:#808080" transform="scale(3.0,3.0)">
	<text style="fill: #bf0909;" transform="matrix(1 0 0 1 7.00 35.38)">1</text>
	<text style="fill: #093ebf;" transform="matrix(1 0 0 1 21.50 10.50)">2</text>
	<text style="fill: #73bf09;" transform="matrix(1 0 0 1 4.50 67.50)">3</text>
	<text style="fill: #bf09a8;" transform="matrix(1 0 0 1 48.50 24.50)">4</text>
	<text style="fill: #09bfa0;" transform="matrix(1 0 0 1 62.50 37.50)">5</text>
	<text style="fill: #bf6b09;" transform="matrix(1 0 0 1 44.00 83.00)">6</text>
</g>
</svg>
