<?xml version="1.0" encoding="UTF-8"?>

<!DOCTYPE svg PUBLIC "-//W3C//DTD SVG 1.0//EN" "http://www.w3.org/TR/2001/REC-SVG-20010904/DTD/svg10.dtd" [
<!ATTLIST g
xmlns:kvg CDATA #FIXED "http://kanjivg.tagaini.net"
kvg:element CDATA #IMPLIED
kvg:variant CDATA #IMPLIED
kvg:partial CDATA #IMPLIED
kvg:original CDATA #IMPLIED
kvg:part CDATA #IMPLIED
kvg:number CDATA #IMPLIED
kvg:tradForm CDATA #IMPLIED
kvg:radicalForm CDATA #IMPLIED
kvg:position CDATA #IMPLIED
kvg:radical CDATA #IMPLIED
kvg:phon CDATA #IMPLIED >
<!ATTLIST path
xmlns:kvg CDATA #FIXED "http://kanjivg.tagaini.net"
kvg:type CDATA #IMPLIED >
]>
<svg xmlns="http://www.w3.org/2000/svg" width="327" height = "327" viewBox="0 0 327 327">
<g id="kvg:StrokePaths_06282" style="fill:none;stroke:#000000;stroke-width:3;stroke-linecap:round;stroke-linejoin:round;" transform="scale(3.0,3.0)">
<g id="kvg:06282" kvg:element="抂">
	<g id="kvg:06282-g1" kvg:element="扌" kvg:variant="true" kvg:original="手" kvg:position="left" kvg:radical="general">
		<path style="stroke: #bf0909;" id="kvg:06282-s1" kvg:type="㇐" d="M13,38.34c2.4,0.29,1.46,0.64,4.03,0.29c6.33-0.86,17.84-2.88,28.39-4.22"/>
		<path style="stroke: #093ebf;" id="kvg:06282-s2" kvg:type="㇚" d="M29.77,13c0.48,0.92,1.67,2.49,1.76,5.52c0.4,14.55,0.24,62.94,0.24,67.9c0,14.25-6.82,4.53-8.27,3"/>
		<path style="stroke: #73bf09;" id="kvg:06282-s3" kvg:type="㇀" d="M12,66.38c2.57,1.84,4.22,1,6.8-0.58c1.52-0.93,18.28-12.17,24.7-16.63"/>
	</g>
	<g id="kvg:06282-g2" kvg:element="王" kvg:original="玉" kvg:partial="true" kvg:position="right">
		<path style="stroke: #bf09a8;" id="kvg:06282-s4" kvg:type="㇐" d="M46.36,25.97c1.89,0.28,3.73,0.62,4.86,0.53c12.31-0.98,26.03-1.99,36.7-2.85c1.71-0.14,3.28,0.08,4.69,0.42"/>
		<path style="stroke: #09bfa0;" id="kvg:06282-s5" kvg:type="㇑a" d="M67.61,26.86c1.74,2.33,1.74,3.73,1.74,5.6c0,13.06-0.02,37.21-0.02,58.14"/>
		<path style="stroke: #bf6b09;" id="kvg:06282-s6" kvg:type="㇐" d="M48.64,57.37c0.79,0.52,3.41,0.78,4.23,0.73c9.88-0.6,23.47-1.23,33.41-2.15c0.99-0.09,3.17-0.21,4.65,0.25"/>
		<path style="stroke: #3609bf;" id="kvg:06282-s7" kvg:type="㇐" d="M41.59,91.89c1.41,0.36,3.89,0.72,6.1,0.5C62,91,76.5,89.75,93.4,90.02c1.76,0.03,3.87,0.4,4.75,0.78"/>
	</g>
</g>
</g>
<g id="kvg:StrokeNumbers_06282" style="font-size:8;fill:#808080" transform="scale(3.0,3.0)">
	<text style="fill: #bf0909;" transform="matrix(1 0 0 1 6.50 38.50)">1</text>
	<text style="fill: #093ebf;" transform="matrix(1 0 0 1 21.50 12.50)">2</text>
	<text style="fill: #73bf09;" transform="matrix(1 0 0 1 4.50 68.50)">3</text>
	<text style="fill: #bf09a8;" transform="matrix(1 0 0 1 44.50 22.50)">4</text>
	<text style="fill: #09bfa0;" transform="matrix(1 0 0 1 61.50 35.50)">5</text>
	<text style="fill: #bf6b09;" transform="matrix(1 0 0 1 47.50 53.50)">6</text>
	<text style="fill: #3609bf;" transform="matrix(1 0 0 1 39.50 88.50)">7</text>
</g>
</svg>
