<?xml version="1.0" encoding="UTF-8"?>

<!DOCTYPE svg PUBLIC "-//W3C//DTD SVG 1.0//EN" "http://www.w3.org/TR/2001/REC-SVG-20010904/DTD/svg10.dtd" [
<!ATTLIST g
xmlns:kvg CDATA #FIXED "http://kanjivg.tagaini.net"
kvg:element CDATA #IMPLIED
kvg:variant CDATA #IMPLIED
kvg:partial CDATA #IMPLIED
kvg:original CDATA #IMPLIED
kvg:part CDATA #IMPLIED
kvg:number CDATA #IMPLIED
kvg:tradForm CDATA #IMPLIED
kvg:radicalForm CDATA #IMPLIED
kvg:position CDATA #IMPLIED
kvg:radical CDATA #IMPLIED
kvg:phon CDATA #IMPLIED >
<!ATTLIST path
xmlns:kvg CDATA #FIXED "http://kanjivg.tagaini.net"
kvg:type CDATA #IMPLIED >
]>
<svg xmlns="http://www.w3.org/2000/svg" width="327" height = "327" viewBox="0 0 327 327">
<g id="kvg:StrokePaths_06587" style="fill:none;stroke:#000000;stroke-width:3;stroke-linecap:round;stroke-linejoin:round;" transform="scale(3.0,3.0)">
<g id="kvg:06587" kvg:element="文" kvg:radical="general">
	<g id="kvg:06587-g1" kvg:element="亠" kvg:position="top">
		<path style="stroke: #bf0909;" id="kvg:06587-s1" kvg:type="㇑a" d="M51.62,12.75c1.06,1.06,1.73,2.5,1.73,4.01c0,4.32-0.11,7.61-0.11,12.15"/>
		<path style="stroke: #093ebf;" id="kvg:06587-s2" kvg:type="㇐" d="M16.88,32.72c2.7,0.66,5.71,0.86,8.6,0.54c15.77-1.76,40.15-5.01,56.42-6.1c3.67-0.25,6.15,0.05,8.88,0.69"/>
	</g>
	<g id="kvg:06587-g2" kvg:element="乂" kvg:position="bottom">
		<path style="stroke: #73bf09;" id="kvg:06587-s3" kvg:type="㇒" d="M69.89,32.5c0.36,2.12,0.06,3.82-0.93,6.27C61.62,57,43.75,80.25,18.75,93.75"/>
		<path style="stroke: #bf09a8;" id="kvg:06587-s4" kvg:type="㇏" d="M31,43.75c6,0,27.27,26.79,49.26,42.1c4.13,2.87,7.49,4.77,11.49,6.04"/>
	</g>
</g>
</g>
<g id="kvg:StrokeNumbers_06587" style="font-size:8;fill:#808080" transform="scale(3.0,3.0)">
	<text style="fill: #bf0909;" transform="matrix(1 0 0 1 41.25 13.50)">1</text>
	<text style="fill: #093ebf;" transform="matrix(1 0 0 1 8.50 33.50)">2</text>
	<text style="fill: #73bf09;" transform="matrix(1 0 0 1 61.50 38.50)">3</text>
	<text style="fill: #bf09a8;" transform="matrix(1 0 0 1 25.50 46.50)">4</text>
</g>
</svg>
