<?xml version="1.0" encoding="UTF-8"?>

<!DOCTYPE svg PUBLIC "-//W3C//DTD SVG 1.0//EN" "http://www.w3.org/TR/2001/REC-SVG-20010904/DTD/svg10.dtd" [
<!ATTLIST g
xmlns:kvg CDATA #FIXED "http://kanjivg.tagaini.net"
kvg:element CDATA #IMPLIED
kvg:variant CDATA #IMPLIED
kvg:partial CDATA #IMPLIED
kvg:original CDATA #IMPLIED
kvg:part CDATA #IMPLIED
kvg:number CDATA #IMPLIED
kvg:tradForm CDATA #IMPLIED
kvg:radicalForm CDATA #IMPLIED
kvg:position CDATA #IMPLIED
kvg:radical CDATA #IMPLIED
kvg:phon CDATA #IMPLIED >
<!ATTLIST path
xmlns:kvg CDATA #FIXED "http://kanjivg.tagaini.net"
kvg:type CDATA #IMPLIED >
]>
<svg xmlns="http://www.w3.org/2000/svg" width="327" height = "327" viewBox="0 0 327 327">
<g id="kvg:StrokePaths_06c41" style="fill:none;stroke:#000000;stroke-width:3;stroke-linecap:round;stroke-linejoin:round;" transform="scale(3.0,3.0)">
<g id="kvg:06c41" kvg:element="汁">
	<g id="kvg:06c41-g1" kvg:element="氵" kvg:variant="true" kvg:original="水" kvg:position="left" kvg:radical="general">
		<path style="stroke: #bf0909;" id="kvg:06c41-s1" kvg:type="㇔" d="M21.75,17.5c4.68,1.78,12.08,7.32,13.25,10.09"/>
		<path style="stroke: #093ebf;" id="kvg:06c41-s2" kvg:type="㇔" d="M15.5,40.62c4.5,1.61,11.62,6.62,12.75,9.12"/>
		<path style="stroke: #73bf09;" id="kvg:06c41-s3" kvg:type="㇀" d="M15.6,87.53c1.52,0.69,3.12,0.5,4.03-0.79c3.22-4.57,6.44-10.16,9.36-15.99"/>
	</g>
	<g id="kvg:06c41-g2" kvg:element="十" kvg:position="right" kvg:phon="十">
		<path style="stroke: #bf09a8;" id="kvg:06c41-s4" kvg:type="㇐" d="M40.67,48.16c2.32,0.83,5.59,0.5,7.98,0.27c12.58-1.23,30.86-3.05,40.97-3.66c2.42-0.15,4.83-0.28,7.22,0.23"/>
		<path style="stroke: #09bfa0;" id="kvg:06c41-s5" kvg:type="㇑" d="M66.68,14.13c1.22,1.22,1.64,2.99,1.64,4.45c0,0.82,0.02,50.57,0.02,69.42c0,4.28,0,6.96-0.01,7.13"/>
	</g>
</g>
</g>
<g id="kvg:StrokeNumbers_06c41" style="font-size:8;fill:#808080" transform="scale(3.0,3.0)">
	<text style="fill: #bf0909;" transform="matrix(1 0 0 1 15.50 17.50)">1</text>
	<text style="fill: #093ebf;" transform="matrix(1 0 0 1 8.50 41.50)">2</text>
	<text style="fill: #73bf09;" transform="matrix(1 0 0 1 8.25 92.50)">3</text>
	<text style="fill: #bf09a8;" transform="matrix(1 0 0 1 39.50 45.50)">4</text>
	<text style="fill: #09bfa0;" transform="matrix(1 0 0 1 57.50 15.13)">5</text>
</g>
</svg>
