<?xml version="1.0" encoding="UTF-8"?>

<!DOCTYPE svg PUBLIC "-//W3C//DTD SVG 1.0//EN" "http://www.w3.org/TR/2001/REC-SVG-20010904/DTD/svg10.dtd" [
<!ATTLIST g
xmlns:kvg CDATA #FIXED "http://kanjivg.tagaini.net"
kvg:element CDATA #IMPLIED
kvg:variant CDATA #IMPLIED
kvg:partial CDATA #IMPLIED
kvg:original CDATA #IMPLIED
kvg:part CDATA #IMPLIED
kvg:number CDATA #IMPLIED
kvg:tradForm CDATA #IMPLIED
kvg:radicalForm CDATA #IMPLIED
kvg:position CDATA #IMPLIED
kvg:radical CDATA #IMPLIED
kvg:phon CDATA #IMPLIED >
<!ATTLIST path
xmlns:kvg CDATA #FIXED "http://kanjivg.tagaini.net"
kvg:type CDATA #IMPLIED >
]>
<svg xmlns="http://www.w3.org/2000/svg" width="327" height = "327" viewBox="0 0 327 327">
<g id="kvg:StrokePaths_06c81" style="fill:none;stroke:#000000;stroke-width:3;stroke-linecap:round;stroke-linejoin:round;" transform="scale(3.0,3.0)">
<g id="kvg:06c81" kvg:element="沁">
	<g id="kvg:06c81-g1" kvg:element="氵" kvg:variant="true" kvg:original="水" kvg:position="left" kvg:radical="general">
		<path style="stroke: #bf0909;" id="kvg:06c81-s1" kvg:type="㇔" d="M17.88,18.25c4.01,1.65,10.36,6.78,11.37,9.34"/>
		<path style="stroke: #093ebf;" id="kvg:06c81-s2" kvg:type="㇔" d="M12.5,42.75c4.24,1.63,10.94,6.71,12,9.25"/>
		<path style="stroke: #73bf09;" id="kvg:06c81-s3" kvg:type="㇀" d="M11.75,86.23c1.71,1.27,3.78,1.32,4.86-0.25c3.14-4.57,9.29-16.66,12.14-22.49"/>
	</g>
	<g id="kvg:06c81-g2" kvg:element="心" kvg:position="right">
		<path style="stroke: #bf09a8;" id="kvg:06c81-s4" kvg:type="㇔" d="M39.06,53.95c0.2,3.52-1.98,16.08-3.56,21.95"/>
		<path style="stroke: #09bfa0;" id="kvg:06c81-s5" kvg:type="㇃" d="M44.27,32.8c1.73,0.7,2.91,4.02,3.36,5.96C54,66.5,61.2,81.46,84.75,87c12.75,3,14.25,0.75,9-8.75"/>
		<path style="stroke: #bf6b09;" id="kvg:06c81-s6" kvg:type="㇔a" d="M59.84,30.75c3.41,11.5,8.73,14.14,9.72,7.1"/>
		<path style="stroke: #3609bf;" id="kvg:06c81-s7" kvg:type="㇔" d="M84.65,35.95c4.82,3.13,8.43,5.97,12.35,15.64"/>
	</g>
</g>
</g>
<g id="kvg:StrokeNumbers_06c81" style="font-size:8;fill:#808080" transform="scale(3.0,3.0)">
	<text style="fill: #bf0909;" transform="matrix(1 0 0 1 11.50 18.50)">1</text>
	<text style="fill: #093ebf;" transform="matrix(1 0 0 1 4.50 42.50)">2</text>
	<text style="fill: #73bf09;" transform="matrix(1 0 0 1 4.50 89.50)">3</text>
	<text style="fill: #bf09a8;" transform="matrix(1 0 0 1 31.50 51.50)">4</text>
	<text style="fill: #09bfa0;" transform="matrix(1 0 0 1 37.50 33.50)">5</text>
	<text style="fill: #bf6b09;" transform="matrix(1 0 0 1 52.50 30.50)">6</text>
	<text style="fill: #3609bf;" transform="matrix(1 0 0 1 78.50 35.50)">7</text>
</g>
</svg>
