<?xml version="1.0" encoding="UTF-8"?>

<!DOCTYPE svg PUBLIC "-//W3C//DTD SVG 1.0//EN" "http://www.w3.org/TR/2001/REC-SVG-20010904/DTD/svg10.dtd" [
<!ATTLIST g
xmlns:kvg CDATA #FIXED "http://kanjivg.tagaini.net"
kvg:element CDATA #IMPLIED
kvg:variant CDATA #IMPLIED
kvg:partial CDATA #IMPLIED
kvg:original CDATA #IMPLIED
kvg:part CDATA #IMPLIED
kvg:number CDATA #IMPLIED
kvg:tradForm CDATA #IMPLIED
kvg:radicalForm CDATA #IMPLIED
kvg:position CDATA #IMPLIED
kvg:radical CDATA #IMPLIED
kvg:phon CDATA #IMPLIED >
<!ATTLIST path
xmlns:kvg CDATA #FIXED "http://kanjivg.tagaini.net"
kvg:type CDATA #IMPLIED >
]>
<svg xmlns="http://www.w3.org/2000/svg" width="327" height = "327" viewBox="0 0 327 327">
<g id="kvg:StrokePaths_0706c" style="fill:none;stroke:#000000;stroke-width:3;stroke-linecap:round;stroke-linejoin:round;" transform="scale(3.0,3.0)">
<g id="kvg:0706c" kvg:element="灬" kvg:variant="true" kvg:original="火" kvg:radical="tradit">
	<path style="stroke: #bf0909;" id="kvg:0706c-s1" kvg:type="㇔" d="M20.64,43.97c-0.51,10.16-6.01,19.28-8.39,21.66"/>
	<path style="stroke: #093ebf;" id="kvg:0706c-s2" kvg:type="㇔" d="M37.12,41.62c4.32,3.86,8.41,14.46,9.49,20.46"/>
	<path style="stroke: #73bf09;" id="kvg:0706c-s3" kvg:type="㇔" d="M60.42,39.96c3.34,3.66,8.63,15.07,9.47,20.77"/>
	<path style="stroke: #bf09a8;" id="kvg:0706c-s4" kvg:type="㇔" d="M82.38,40.12c5.01,3.81,12.93,15.67,14.18,21.61"/>
</g>
</g>
<g id="kvg:StrokeNumbers_0706c" style="font-size:8;fill:#808080" transform="scale(3.0,3.0)">
	<text style="fill: #bf0909;" transform="matrix(1 0 0 1 15.25 39.25)">1</text>
	<text style="fill: #093ebf;" transform="matrix(1 0 0 1 30.25 40.25)">2</text>
	<text style="fill: #73bf09;" transform="matrix(1 0 0 1 53.25 39.25)">3</text>
	<text style="fill: #bf09a8;" transform="matrix(1 0 0 1 74.25 39.25)">4</text>
</g>
</svg>
