<?xml version="1.0" encoding="UTF-8"?>

<!DOCTYPE svg PUBLIC "-//W3C//DTD SVG 1.0//EN" "http://www.w3.org/TR/2001/REC-SVG-20010904/DTD/svg10.dtd" [
<!ATTLIST g
xmlns:kvg CDATA #FIXED "http://kanjivg.tagaini.net"
kvg:element CDATA #IMPLIED
kvg:variant CDATA #IMPLIED
kvg:partial CDATA #IMPLIED
kvg:original CDATA #IMPLIED
kvg:part CDATA #IMPLIED
kvg:number CDATA #IMPLIED
kvg:tradForm CDATA #IMPLIED
kvg:radicalForm CDATA #IMPLIED
kvg:position CDATA #IMPLIED
kvg:radical CDATA #IMPLIED
kvg:phon CDATA #IMPLIED >
<!ATTLIST path
xmlns:kvg CDATA #FIXED "http://kanjivg.tagaini.net"
kvg:type CDATA #IMPLIED >
]>
<svg xmlns="http://www.w3.org/2000/svg" width="327" height = "327" viewBox="0 0 327 327">
<g id="kvg:StrokePaths_072ad" style="fill:none;stroke:#000000;stroke-width:3;stroke-linecap:round;stroke-linejoin:round;" transform="scale(3.0,3.0)">
<g id="kvg:072ad" kvg:element="犭" kvg:radical="general">
	<path style="stroke: #bf0909;" id="kvg:072ad-s1" kvg:type="㇒" d="M39.31,17.5c0.13,1.12-0.19,2.21-0.8,3.09c-5.08,7.33-11.26,12.79-22.76,20.7"/>
	<path style="stroke: #093ebf;" id="kvg:072ad-s2" kvg:type="㇁" d="M20.5,20.75c29.5,15,17.75,82.25,4.75,68.5"/>
	<path style="stroke: #73bf09;" id="kvg:072ad-s3" kvg:type="㇒" d="M34.32,46.75c0,1.12-0.22,2.29-0.61,2.92C28.62,57.88,23.75,64.12,14,72.04"/>
</g>
</g>
<g id="kvg:StrokeNumbers_072ad" style="font-size:8;fill:#808080" transform="scale(3.0,3.0)">
	<text style="fill: #bf0909;" transform="matrix(1 0 0 1 32.50 17.50)">1</text>
	<text style="fill: #093ebf;" transform="matrix(1 0 0 1 13.50 21.50)">2</text>
	<text style="fill: #73bf09;" transform="matrix(1 0 0 1 26.50 47.50)">3</text>
</g>
</svg>
