<?xml version="1.0" encoding="UTF-8"?>

<!DOCTYPE svg PUBLIC "-//W3C//DTD SVG 1.0//EN" "http://www.w3.org/TR/2001/REC-SVG-20010904/DTD/svg10.dtd" [
<!ATTLIST g
xmlns:kvg CDATA #FIXED "http://kanjivg.tagaini.net"
kvg:element CDATA #IMPLIED
kvg:variant CDATA #IMPLIED
kvg:partial CDATA #IMPLIED
kvg:original CDATA #IMPLIED
kvg:part CDATA #IMPLIED
kvg:number CDATA #IMPLIED
kvg:tradForm CDATA #IMPLIED
kvg:radicalForm CDATA #IMPLIED
kvg:position CDATA #IMPLIED
kvg:radical CDATA #IMPLIED
kvg:phon CDATA #IMPLIED >
<!ATTLIST path
xmlns:kvg CDATA #FIXED "http://kanjivg.tagaini.net"
kvg:type CDATA #IMPLIED >
]>
<svg xmlns="http://www.w3.org/2000/svg" width="327" height = "327" viewBox="0 0 327 327">
<g id="kvg:StrokePaths_07533" style="fill:none;stroke:#000000;stroke-width:3;stroke-linecap:round;stroke-linejoin:round;" transform="scale(3.0,3.0)">
<g id="kvg:07533" kvg:element="申">
	<g id="kvg:07533-g1" kvg:element="日" kvg:partial="true" kvg:radical="tradit">
		<path style="stroke: #bf0909;" id="kvg:07533-s1" kvg:type="㇑" d="M21.5,29.62c1.19,1.19,1.94,2.25,2.19,3.96c1.29,9.01,2.73,19.81,4.19,32.77c0.17,1.48,0.33,2.99,0.5,4.53"/>
		<path style="stroke: #093ebf;" id="kvg:07533-s2" kvg:type="㇕a" d="M24.6,31.18c17.65-1.68,45.19-3.9,56.93-4.59c4.55-0.27,6.58,1.68,5.96,5.94c-1,6.91-3.3,19.86-5.18,29.76c-0.35,1.83-0.68,3.56-0.99,5.12"/>
		<path style="stroke: #73bf09;" id="kvg:07533-s3" kvg:type="㇐a" d="M26.9,48.95c15.47-1.33,39.22-2.83,57.36-3.38"/>
		<path style="stroke: #bf09a8;" id="kvg:07533-s4" kvg:type="㇐a" d="M29.44,67.56c12.93-0.94,34.43-2.56,51.27-3"/>
	</g>
	<g id="kvg:07533-g2" kvg:element="丨" kvg:radical="nelson">
		<path style="stroke: #09bfa0;" id="kvg:07533-s5" kvg:type="㇑" d="M52.48,10c1.12,1.12,1.74,2.95,1.74,4.17c0,4.21,0.03,58.55,0.04,79.45c0,2.76,0,4.8,0,5.88"/>
	</g>
</g>
</g>
<g id="kvg:StrokeNumbers_07533" style="font-size:8;fill:#808080" transform="scale(3.0,3.0)">
	<text style="fill: #bf0909;" transform="matrix(1 0 0 1 17.25 39.13)">1</text>
	<text style="fill: #093ebf;" transform="matrix(1 0 0 1 25.50 27.13)">2</text>
	<text style="fill: #73bf09;" transform="matrix(1 0 0 1 31.50 44.50)">3</text>
	<text style="fill: #bf09a8;" transform="matrix(1 0 0 1 31.50 63.13)">4</text>
	<text style="fill: #09bfa0;" transform="matrix(1 0 0 1 42.50 10.50)">5</text>
</g>
</svg>
