<?xml version="1.0" encoding="UTF-8"?>

<!DOCTYPE svg PUBLIC "-//W3C//DTD SVG 1.0//EN" "http://www.w3.org/TR/2001/REC-SVG-20010904/DTD/svg10.dtd" [
<!ATTLIST g
xmlns:kvg CDATA #FIXED "http://kanjivg.tagaini.net"
kvg:element CDATA #IMPLIED
kvg:variant CDATA #IMPLIED
kvg:partial CDATA #IMPLIED
kvg:original CDATA #IMPLIED
kvg:part CDATA #IMPLIED
kvg:number CDATA #IMPLIED
kvg:tradForm CDATA #IMPLIED
kvg:radicalForm CDATA #IMPLIED
kvg:position CDATA #IMPLIED
kvg:radical CDATA #IMPLIED
kvg:phon CDATA #IMPLIED >
<!ATTLIST path
xmlns:kvg CDATA #FIXED "http://kanjivg.tagaini.net"
kvg:type CDATA #IMPLIED >
]>
<svg xmlns="http://www.w3.org/2000/svg" width="327" height = "327" viewBox="0 0 327 327">
<g id="kvg:StrokePaths_07acb" style="fill:none;stroke:#000000;stroke-width:3;stroke-linecap:round;stroke-linejoin:round;" transform="scale(3.0,3.0)">
<g id="kvg:07acb" kvg:element="立" kvg:radical="general">
	<g id="kvg:07acb-g1" kvg:element="亠" kvg:position="top">
		<path style="stroke: #bf0909;" id="kvg:07acb-s1" kvg:type="㇑a" d="M51.51,15c1.43,1.43,2.24,3.25,2.24,5.81c0,4.06,0,9.56,0,13.69"/>
		<path style="stroke: #093ebf;" id="kvg:07acb-s2" kvg:type="㇐" d="M22,37.86c2.62,0.51,4.75,0.34,7,0.16c11.38-0.9,36.13-3.4,50.65-4.26c2.38-0.14,4.86-0.01,6.86,0.4"/>
	</g>
	<g id="kvg:07acb-g2" kvg:position="bottom">
		<path style="stroke: #73bf09;" id="kvg:07acb-s3" kvg:type="㇔" d="M32,49c4.75,9.75,8.25,22.5,9.5,31.5"/>
		<path style="stroke: #bf09a8;" id="kvg:07acb-s4" kvg:type="㇒" d="M74,39c0.75,1.38,0.81,3.29,0.5,4.5c-2.88,11.12-8.5,30.38-12.75,42"/>
		<path style="stroke: #09bfa0;" id="kvg:07acb-s5" kvg:type="㇐" d="M15.25,88.8c2.33,0.45,5.89,0.53,7.82,0.39c18.3-1.32,40.31-1.94,64.83-2.75c3.24-0.11,6.14,0.05,8.47,0.88"/>
	</g>
</g>
</g>
<g id="kvg:StrokeNumbers_07acb" style="font-size:8;fill:#808080" transform="scale(3.0,3.0)">
	<text style="fill: #bf0909;" transform="matrix(1 0 0 1 42.75 15.50)">1</text>
	<text style="fill: #093ebf;" transform="matrix(1 0 0 1 13.50 38.50)">2</text>
	<text style="fill: #73bf09;" transform="matrix(1 0 0 1 24.25 49.50)">3</text>
	<text style="fill: #bf09a8;" transform="matrix(1 0 0 1 64.75 44.63)">4</text>
	<text style="fill: #09bfa0;" transform="matrix(1 0 0 1 7.50 91.50)">5</text>
</g>
</svg>
