<?xml version="1.0" encoding="UTF-8"?>

<!DOCTYPE svg PUBLIC "-//W3C//DTD SVG 1.0//EN" "http://www.w3.org/TR/2001/REC-SVG-20010904/DTD/svg10.dtd" [
<!ATTLIST g
xmlns:kvg CDATA #FIXED "http://kanjivg.tagaini.net"
kvg:element CDATA #IMPLIED
kvg:variant CDATA #IMPLIED
kvg:partial CDATA #IMPLIED
kvg:original CDATA #IMPLIED
kvg:part CDATA #IMPLIED
kvg:number CDATA #IMPLIED
kvg:tradForm CDATA #IMPLIED
kvg:radicalForm CDATA #IMPLIED
kvg:position CDATA #IMPLIED
kvg:radical CDATA #IMPLIED
kvg:phon CDATA #IMPLIED >
<!ATTLIST path
xmlns:kvg CDATA #FIXED "http://kanjivg.tagaini.net"
kvg:type CDATA #IMPLIED >
]>
<svg xmlns="http://www.w3.org/2000/svg" width="327" height = "327" viewBox="0 0 327 327">
<g id="kvg:StrokePaths_07c1e" style="fill:none;stroke:#000000;stroke-width:3;stroke-linecap:round;stroke-linejoin:round;" transform="scale(3.0,3.0)">
<g id="kvg:07c1e" kvg:element="簞">
	<g id="kvg:07c1e-g1" kvg:element="竹" kvg:variant="true" kvg:position="top" kvg:radical="general">
		<g id="kvg:07c1e-g2" kvg:position="left">
			<path style="stroke: #bf0909;" id="kvg:07c1e-s1" kvg:type="㇒" d="M32.5,9.75c0.04,0.45,0.08,1.17-0.08,1.82C31.46,15.41,25.99,23.84,18.5,29"/>
			<path style="stroke: #093ebf;" id="kvg:07c1e-s2" kvg:type="㇐b" d="M29.73,19.79c3.71,0,17.61-3.29,21.77-3.29"/>
			<path style="stroke: #73bf09;" id="kvg:07c1e-s3" kvg:type="㇔" d="M34.77,21.58c1.87,1.3,4.83,5.36,5.29,7.38"/>
		</g>
		<g id="kvg:07c1e-g3" kvg:position="right">
			<path style="stroke: #bf09a8;" id="kvg:07c1e-s4" kvg:type="㇒" d="M61.25,9c0.02,0.36,0.1,0.94-0.05,1.44c-1.07,3.78-4.03,9.17-7.96,13.81"/>
			<path style="stroke: #09bfa0;" id="kvg:07c1e-s5" kvg:type="㇐b" d="M61.98,17.16c4.73,0,22.08-3.57,27.4-3.57"/>
			<path style="stroke: #bf6b09;" id="kvg:07c1e-s6" kvg:type="㇒" d="M74.27,17.75c0.02,0.22,0.04,0.58-0.04,0.9c-0.45,1.9-3,6.06-6.49,8.6"/>
		</g>
	</g>
	<g id="kvg:07c1e-g4" kvg:element="單" kvg:variant="true" kvg:original="単" kvg:position="bottom">
		<g id="kvg:07c1e-g5" kvg:element="口" kvg:position="top">
			<path style="stroke: #3609bf;" id="kvg:07c1e-s7" kvg:type="㇔" d="M24.14,33.87c0.4,0.23,0.85,0.42,0.98,0.73c1.13,2.7,2.56,8.38,3.69,12.35"/>
			<path style="stroke: #11bf09;" id="kvg:07c1e-s8" kvg:type="㇕" d="M26.6,35.46c7.31-0.57,13.59-1.71,20.33-2.29c1.69-0.14,2.71,0.67,2.47,1.32c-1.01,2.73-1.38,4.34-3.17,8.88"/>
			<path style="stroke: #bf0946;" id="kvg:07c1e-s9" kvg:type="㇐" d="M29.63,45.54c5.45-0.35,11.32-1.29,18.8-1.83"/>
		</g>
		<g id="kvg:07c1e-g6" kvg:element="口" kvg:position="top">
			<path style="stroke: #097bbf;" id="kvg:07c1e-s10" kvg:type="㇑" d="M56.64,32.51c0.35,0.25,0.75,0.45,0.86,0.78c0.99,2.88,2.75,7.22,3.75,11.45"/>
			<path style="stroke: #b0bf09;" id="kvg:07c1e-s11" kvg:type="㇕" d="M57.81,33.51c6.44-0.61,17.48-1.78,23.42-2.4c1.49-0.15,2.39,0.71,2.18,1.41c-0.89,2.91-2.16,4.6-3.74,9.44"/>
			<path style="stroke: #9909bf;" id="kvg:07c1e-s12" kvg:type="㇐" d="M60.97,43.22c4.8-0.37,14.1-0.67,20.69-1.24"/>
		</g>
		<g id="kvg:07c1e-g7" kvg:element="甲" kvg:part="1" kvg:position="bottom">
			<g id="kvg:07c1e-g8" kvg:element="日" kvg:partial="true">
				<path style="stroke: #09bf64;" id="kvg:07c1e-s13" kvg:type="㇑" d="M28.17,51.82c0.34,0.4,1.34,2.18,1.53,2.68c1.52,4.14,2.44,11.9,3.4,19.58"/>
				<path style="stroke: #bf2f09;" id="kvg:07c1e-s14" kvg:type="㇕" d="M29.73,52.48c12.63-1.39,38.98-3.77,47.68-4.48c3.19-0.26,5.12,0.56,5.03,2.3c-0.22,4.14-3.75,17.68-4.32,19.41"/>
				<path style="stroke: #0919bf;" id="kvg:07c1e-s15" kvg:type="㇐" d="M32.88,61.16c3.79-0.33,44.02-3.11,47.15-3.22"/>
				<path style="stroke: #4ebf09;" id="kvg:07c1e-s16" kvg:type="㇐" d="M33.68,72.31c10.99-1.32,32.5-3.03,44.53-3.84"/>
			</g>
		</g>
		<path style="stroke: #bf0983;" id="kvg:07c1e-s17" kvg:type="㇐" d="M17.98,83.57c1.38,0.56,3.92,0.69,5.31,0.56c9.21-0.88,49.38-4.61,66.63-5.37c2.3-0.1,3.69,0.27,4.84,0.54"/>
		<g id="kvg:07c1e-g9" kvg:element="甲" kvg:part="2">
			<path style="stroke: #09b8bf;" id="kvg:07c1e-s18" kvg:type="㇑" d="M54.47,51.75c0.58,0.3,0.94,1.14,0.95,2.17c0.04,5.2,0.17,45.9,0.19,47.6"/>
		</g>
	</g>
</g>
</g>
<g id="kvg:StrokeNumbers_07c1e" style="font-size:8;fill:#808080" transform="scale(3.0,3.0)">
	<text style="fill: #bf0909;" transform="matrix(1 0 0 1 24.50 9.63)">1</text>
	<text style="fill: #093ebf;" transform="matrix(1 0 0 1 39.25 15.05)">2</text>
	<text style="fill: #73bf09;" transform="matrix(1 0 0 1 29.25 27.48)">3</text>
	<text style="fill: #bf09a8;" transform="matrix(1 0 0 1 53.25 7.40)">4</text>
	<text style="fill: #09bfa0;" transform="matrix(1 0 0 1 71.25 11.33)">5</text>
	<text style="fill: #bf6b09;" transform="matrix(1 0 0 1 65.25 23.25)">6</text>
	<text style="fill: #3609bf;" transform="matrix(1 0 0 1 19.50 42.50)">7</text>
	<text style="fill: #11bf09;" transform="matrix(1 0 0 1 27.50 33.35)">8</text>
	<text style="fill: #bf0946;" transform="matrix(1 0 0 1 31.50 43.50)">9</text>
	<text style="fill: #097bbf;" transform="matrix(1 0 0 1 51.50 40.53)">10</text>
	<text style="fill: #b0bf09;" transform="matrix(1 0 0 1 59.50 31.78)">11</text>
	<text style="fill: #9909bf;" transform="matrix(1 0 0 1 62.25 41.50)">12</text>
	<text style="fill: #09bf64;" transform="matrix(1 0 0 1 18.50 58.50)">13</text>
	<text style="fill: #bf2f09;" transform="matrix(1 0 0 1 31.50 50.50)">14</text>
	<text style="fill: #0919bf;" transform="matrix(1 0 0 1 34.50 59.50)">15</text>
	<text style="fill: #4ebf09;" transform="matrix(1 0 0 1 34.50 69.50)">16</text>
	<text style="fill: #bf0983;" transform="matrix(1 0 0 1 24.50 79.50)">17</text>
	<text style="fill: #09b8bf;" transform="matrix(1 0 0 1 44.50 89.50)">18</text>
</g>
</svg>
