<?xml version="1.0" encoding="UTF-8"?>

<!DOCTYPE svg PUBLIC "-//W3C//DTD SVG 1.0//EN" "http://www.w3.org/TR/2001/REC-SVG-20010904/DTD/svg10.dtd" [
<!ATTLIST g
xmlns:kvg CDATA #FIXED "http://kanjivg.tagaini.net"
kvg:element CDATA #IMPLIED
kvg:variant CDATA #IMPLIED
kvg:partial CDATA #IMPLIED
kvg:original CDATA #IMPLIED
kvg:part CDATA #IMPLIED
kvg:number CDATA #IMPLIED
kvg:tradForm CDATA #IMPLIED
kvg:radicalForm CDATA #IMPLIED
kvg:position CDATA #IMPLIED
kvg:radical CDATA #IMPLIED
kvg:phon CDATA #IMPLIED >
<!ATTLIST path
xmlns:kvg CDATA #FIXED "http://kanjivg.tagaini.net"
kvg:type CDATA #IMPLIED >
]>
<svg xmlns="http://www.w3.org/2000/svg" width="327" height = "327" viewBox="0 0 327 327">
<g id="kvg:StrokePaths_0826e" style="fill:none;stroke:#000000;stroke-width:3;stroke-linecap:round;stroke-linejoin:round;" transform="scale(3.0,3.0)">
<g id="kvg:0826e" kvg:element="艮" kvg:radical="general">
	<path style="stroke: #bf0909;" id="kvg:0826e-s1" kvg:type="㇕" d="M31.01,16.87c1.49,1.01,3.85,0.87,6.74,0.46c8.19-1.17,21.42-3.12,27.25-3.7c3.15-0.31,6.03,1.05,5.81,4.25C70.28,25.27,68.5,40.25,67.25,47"/>
	<path style="stroke: #093ebf;" id="kvg:0826e-s2" kvg:type="㇐a" d="M34.25,32.5c9.5-1.38,27.81-3.48,34.75-4"/>
	<path style="stroke: #73bf09;" id="kvg:0826e-s3" kvg:type="㇐a" d="M34.36,47.79C44.25,46.75,56,45.5,66.75,44.5"/>
	<path style="stroke: #bf09a8;" id="kvg:0826e-s4" kvg:type="㇙" d="M32.26,17.87c0.81,0.81,0.94,2.01,0.94,3c0,3.26-0.08,66.92-0.08,71.51c0,4.11,1.22,5.28,4.75,2.25c5.54-4.75,10.88-9,15.32-12.71"/>
	<path style="stroke: #09bfa0;" id="kvg:0826e-s5" kvg:type="㇒" d="M75.26,50.92c-0.01,1.08-0.41,2.18-1.1,2.84c-4.79,4.61-7.04,7.11-10.67,10.11"/>
	<path style="stroke: #bf6b09;" id="kvg:0826e-s6" kvg:type="㇏" d="M42.35,53.57c4.62,0,23.79,18.52,34.32,27.52c3.64,3.12,8.83,6.91,13.89,8.46"/>
</g>
</g>
<g id="kvg:StrokeNumbers_0826e" style="font-size:8;fill:#808080" transform="scale(3.0,3.0)">
	<text style="fill: #bf0909;" transform="matrix(1 0 0 1 34.50 14.50)">1</text>
	<text style="fill: #093ebf;" transform="matrix(1 0 0 1 37.50 28.55)">2</text>
	<text style="fill: #73bf09;" transform="matrix(1 0 0 1 37.50 44.98)">3</text>
	<text style="fill: #bf09a8;" transform="matrix(1 0 0 1 25.50 24.50)">4</text>
	<text style="fill: #09bfa0;" transform="matrix(1 0 0 1 76.50 48.50)">5</text>
	<text style="fill: #bf6b09;" transform="matrix(1 0 0 1 39.75 62.50)">6</text>
</g>
</svg>
