<?xml version="1.0" encoding="UTF-8"?>

<!DOCTYPE svg PUBLIC "-//W3C//DTD SVG 1.0//EN" "http://www.w3.org/TR/2001/REC-SVG-20010904/DTD/svg10.dtd" [
<!ATTLIST g
xmlns:kvg CDATA #FIXED "http://kanjivg.tagaini.net"
kvg:element CDATA #IMPLIED
kvg:variant CDATA #IMPLIED
kvg:partial CDATA #IMPLIED
kvg:original CDATA #IMPLIED
kvg:part CDATA #IMPLIED
kvg:number CDATA #IMPLIED
kvg:tradForm CDATA #IMPLIED
kvg:radicalForm CDATA #IMPLIED
kvg:position CDATA #IMPLIED
kvg:radical CDATA #IMPLIED
kvg:phon CDATA #IMPLIED >
<!ATTLIST path
xmlns:kvg CDATA #FIXED "http://kanjivg.tagaini.net"
kvg:type CDATA #IMPLIED >
]>
<svg xmlns="http://www.w3.org/2000/svg" width="327" height = "327" viewBox="0 0 327 327">
<g id="kvg:StrokePaths_082af" style="fill:none;stroke:#000000;stroke-width:3;stroke-linecap:round;stroke-linejoin:round;" transform="scale(3.0,3.0)">
<g id="kvg:082af" kvg:element="芯">
	<g id="kvg:082af-g1" kvg:element="艹" kvg:variant="true" kvg:original="艸" kvg:position="top" kvg:radical="general">
		<path style="stroke: #bf0909;" id="kvg:082af-s1" kvg:type="㇐" d="M17.5,31.58c5.5,0.92,10.45,0.07,15.77-0.66c13.4-1.85,31.58-3.82,44.09-4.39c4.29-0.22,8.59-0.08,12.88,0.41"/>
		<path style="stroke: #093ebf;" id="kvg:082af-s2" kvg:type="㇑a" d="M36.5,18.25c1,1,1.35,2.11,1.5,3c1.62,9.38,2.75,18,3.25,21"/>
		<path style="stroke: #73bf09;" id="kvg:082af-s3" kvg:type="㇑a" d="M68.94,13.75c0.56,1.38,0.29,2.77-0.03,4.31c-1.66,8.07-3.16,14.57-4.84,22.69"/>
	</g>
	<g id="kvg:082af-g2" kvg:element="心" kvg:position="bottom">
		<path style="stroke: #bf09a8;" id="kvg:082af-s4" kvg:type="㇔" d="M23.64,68.82c0.42,2.78-4.95,15.29-8.31,19.92"/>
		<path style="stroke: #09bfa0;" id="kvg:082af-s5" kvg:type="㇃" d="M33.08,60.75C42.5,86.5,47.5,96.5,77.03,95.43c12.7-0.46,14.03-3.06,3.44-11.7"/>
		<path style="stroke: #bf6b09;" id="kvg:082af-s6" kvg:type="㇔a" d="M56.91,60.25c2.17,5.25,6.82,13,9.13,4.96"/>
		<path style="stroke: #3609bf;" id="kvg:082af-s7" kvg:type="㇔" d="M83.63,57.23c7.24,4.64,11.37,8.02,13.6,12.86"/>
	</g>
</g>
</g>
<g id="kvg:StrokeNumbers_082af" style="font-size:8;fill:#808080" transform="scale(3.0,3.0)">
	<text style="fill: #bf0909;" transform="matrix(1 0 0 1 10.50 32.50)">1</text>
	<text style="fill: #093ebf;" transform="matrix(1 0 0 1 26.50 17.50)">2</text>
	<text style="fill: #73bf09;" transform="matrix(1 0 0 1 58.50 13.50)">3</text>
	<text style="fill: #bf09a8;" transform="matrix(1 0 0 1 17.50 65.50)">4</text>
	<text style="fill: #09bfa0;" transform="matrix(1 0 0 1 26.50 57.50)">5</text>
	<text style="fill: #bf6b09;" transform="matrix(1 0 0 1 50.50 60.50)">6</text>
	<text style="fill: #3609bf;" transform="matrix(1 0 0 1 77.50 58.50)">7</text>
</g>
</svg>
